<?xml version="1.0" standalone="no"?>
<!DOCTYPE svg PUBLIC "-//W3C//DTD SVG 20010904//EN"
 "http://www.w3.org/TR/2001/REC-SVG-20010904/DTD/svg10.dtd">
<svg version="1.0" xmlns="http://www.w3.org/2000/svg"
 width="700.000000pt" height="700.000000pt" viewBox="0 0 700.000000 700.000000"
 preserveAspectRatio="xMidYMid meet">
<metadata>
Created by potrace 1.11, written by Peter Selinger 2001-2013
</metadata>
<g transform="translate(0.000000,700.000000) scale(0.100000,-0.100000)"
fill="#000000" stroke="none">
<path d="M405 6930 c-5 -8 8 -32 80 -149 28 -45 57 -94 66 -109 68 -113 310
-510 319 -522 13 -19 76 -123 102 -170 11 -19 33 -54 49 -78 16 -24 29 -45 29
-48 0 -2 12 -23 27 -47 77 -121 153 -250 153 -257 0 -5 3 -10 8 -12 7 -3 72
-106 72 -114 0 -3 14 -25 30 -49 17 -24 30 -48 30 -53 0 -6 3 -12 8 -14 9 -4
72 -107 72 -119 0 -5 5 -9 10 -9 6 0 10 -4 10 -9 0 -5 67 -119 149 -253 81
-134 237 -389 346 -568 108 -179 208 -342 221 -362 13 -21 24 -42 24 -48 0 -5
5 -10 10 -10 6 0 10 -5 10 -11 0 -6 13 -30 30 -54 17 -24 30 -46 30 -48 0 -3
27 -48 60 -100 33 -53 60 -101 60 -106 0 -6 5 -11 10 -11 6 0 10 -7 10 -15 0
-8 3 -15 8 -15 4 0 12 -10 18 -23 6 -12 68 -116 139 -232 70 -115 138 -226
149 -245 31 -52 55 -84 59 -79 3 2 31 48 63 101 33 53 90 148 129 210 38 62
77 125 85 139 17 30 127 209 150 244 8 13 28 45 44 72 16 26 106 172 199 323
93 151 178 289 188 307 9 17 46 78 82 135 168 271 263 425 273 443 6 11 35 58
64 105 29 47 62 101 74 120 11 19 23 37 26 40 3 3 11 16 19 30 23 40 171 282
278 456 55 88 110 179 123 202 13 23 27 42 32 42 4 0 8 6 8 13 0 7 17 39 39
72 21 33 77 123 123 200 47 77 116 190 153 250 38 61 84 137 104 170 19 33 38
62 41 65 3 3 10 14 16 25 28 51 39 70 45 75 3 3 18 26 33 53 l28 47 -319 1
c-2019 4 -4495 4 -4498 -1z"/>
<path d="M5968 6923 c-6 -7 -18 -26 -27 -42 -37 -64 -135 -228 -156 -261 -51
-79 -145 -242 -145 -250 0 -6 -4 -10 -10 -10 -5 0 -10 -4 -10 -9 0 -8 -99
-179 -145 -251 -40 -63 -335 -560 -335 -566 0 -2 -5 -10 -10 -17 -6 -7 -53
-84 -105 -172 -53 -88 -99 -167 -105 -175 -13 -21 -102 -170 -116 -195 -6 -11
-43 -73 -82 -137 -69 -112 -82 -142 -64 -150 6 -2 421 -687 456 -753 6 -11 13
-22 16 -25 5 -5 518 -856 569 -944 13 -23 61 -103 107 -179 46 -75 84 -142 84
-147 0 -6 3 -10 8 -10 4 0 12 -10 18 -23 6 -12 109 -184 228 -382 120 -198
228 -378 241 -400 12 -22 41 -69 64 -105 22 -36 46 -74 51 -85 6 -11 20 -36
33 -56 12 -20 103 -171 201 -335 98 -165 184 -305 191 -312 9 -10 12 229 12
1091 0 607 3 1109 7 1116 4 6 4 11 -1 11 -10 0 -9 263 1 279 4 6 3 11 -3 11
-7 0 -7 8 -1 24 5 13 6 26 4 29 -9 8 -10 128 -1 134 4 2 5 8 2 13 -9 15 -12
80 -3 80 4 0 5 7 1 15 -8 23 -8 118 1 133 4 6 4 12 -1 12 -10 0 -10 131 1 148
4 6 4 12 -1 12 -10 0 -10 131 1 148 4 6 4 12 -1 12 -10 0 -10 131 1 148 4 6 4
12 -1 12 -10 0 -10 131 1 148 4 6 4 12 -1 12 -10 0 -10 131 1 148 4 6 4 12 -1
12 -10 0 -10 131 1 148 4 6 4 12 -1 12 -10 0 -10 131 1 148 4 6 4 12 -1 12 -4
0 -8 18 -8 40 0 22 3 40 7 40 4 0 5 7 1 15 -8 23 -8 118 1 133 4 6 3 12 -3 12
-6 0 -6 11 -1 29 4 16 6 32 3 34 -7 8 -7 193 1 206 4 6 4 11 -1 11 -7 0 -9 64
-3 80 2 3 1 10 0 15 -3 12 -2 136 0 150 1 6 2 12 1 15 -6 17 -3 199 3 209 4 6
4 11 -1 11 -7 0 -9 64 -3 80 2 3 1 10 0 15 -3 12 -2 136 0 150 1 6 2 12 1 15
-6 17 -5 140 1 140 4 0 5 6 3 13 -9 21 -11 147 -3 147 4 0 4 10 -1 22 -4 13
-5 35 -1 50 5 14 6 29 2 32 -8 9 -9 56 0 56 4 0 5 6 3 13 -8 19 -11 147 -4
147 11 0 -3 50 -15 51 -6 1 -222 2 -479 3 -372 1 -470 -1 -479 -11z"/>
<path d="M88 6118 c-2 -7 -3 -1208 -1 -2668 1 -1460 2 -2818 3 -3016 l0 -362
32 0 c38 0 772 -14 835 -16 l42 -1 46 80 c25 44 50 87 55 95 22 34 130 222
130 225 0 2 24 43 53 92 30 48 66 111 82 138 15 28 76 134 136 237 60 103 109
192 109 197 0 6 7 14 16 19 9 5 15 11 13 13 -3 4 30 63 153 272 38 65 84 144
100 175 17 32 42 74 55 94 13 21 23 40 23 43 0 3 8 18 19 33 27 40 55 86 56
92 0 3 8 16 16 30 17 26 152 259 188 323 11 21 21 49 21 64 0 14 -29 76 -64
137 -34 61 -78 138 -96 171 -19 33 -44 78 -56 100 -13 22 -29 51 -37 65 -7 14
-54 97 -104 185 -182 322 -340 601 -365 645 -14 25 -56 99 -93 165 -122 215
-136 240 -142 258 -3 9 -9 17 -14 17 -5 0 -9 4 -9 9 0 5 -33 67 -73 138 -40
70 -76 135 -80 143 -4 8 -17 31 -28 50 -26 42 -98 170 -147 260 -19 36 -43 76
-52 90 -10 14 -28 45 -40 70 -12 25 -25 47 -29 50 -3 3 -13 19 -21 35 -8 17
-45 83 -82 147 -36 64 -83 147 -103 183 -19 36 -45 82 -57 103 -11 20 -34 62
-51 92 -16 30 -36 62 -43 71 -8 9 -11 19 -7 22 3 4 1 7 -5 7 -7 0 -12 4 -12 9
0 5 -52 100 -115 211 -63 111 -115 204 -115 206 0 3 -12 23 -27 47 -14 23 -41
69 -59 102 -33 61 -48 75 -56 53z"/>
<path d="M4230 3982 c0 -8 -16 -38 -35 -68 -72 -111 -102 -160 -121 -194 -10
-19 -23 -39 -27 -45 -13 -17 -227 -367 -227 -371 0 -3 -5 -10 -11 -17 -5 -7
-111 -176 -234 -377 -123 -201 -228 -370 -233 -375 -5 -6 -11 -16 -13 -21 -2
-6 -78 -131 -169 -278 -91 -147 -169 -275 -175 -284 -17 -30 -106 -174 -140
-227 -17 -27 -40 -66 -51 -85 -10 -19 -23 -39 -27 -45 -5 -5 -76 -120 -158
-255 -82 -135 -154 -252 -159 -260 -11 -17 -85 -136 -103 -165 -29 -47 -113
-183 -124 -201 -7 -10 -27 -44 -45 -74 -17 -30 -35 -56 -40 -58 -4 -2 -8 -8
-8 -14 0 -5 -13 -29 -30 -53 -16 -24 -30 -46 -30 -50 0 -3 -22 -39 -50 -80
-27 -41 -50 -77 -50 -80 0 -4 -13 -26 -30 -50 -16 -24 -30 -46 -30 -50 0 -3
-18 -33 -40 -65 -22 -32 -40 -62 -40 -65 0 -8 4208 0 4216 7 3 3 21 2 42 -3
21 -4 41 -4 48 1 6 6 13 8 16 5 4 -5 39 -6 196 -5 23 0 46 -1 50 -1 4 -1 9 -1
12 0 3 1 51 2 107 3 l101 0 -46 77 c-25 42 -50 78 -54 79 -4 2 -6 8 -2 13 3 5
1 9 -4 9 -5 0 -17 18 -27 40 -10 22 -22 40 -27 40 -4 0 -8 6 -8 14 0 8 -6 21
-13 28 -6 7 -21 30 -32 51 -11 20 -23 37 -27 37 -5 0 -8 4 -8 10 0 10 -250
425 -269 447 -6 7 -11 15 -11 18 0 3 -25 45 -55 94 -30 49 -55 94 -55 99 0 6
-3 12 -8 14 -7 3 -142 215 -142 224 0 2 -15 27 -34 56 -18 29 -35 58 -37 63
-1 6 -7 15 -12 20 -4 6 -67 107 -139 225 -72 118 -174 285 -226 370 -52 85
-102 169 -112 185 -10 17 -104 172 -210 345 -106 173 -200 327 -209 342 -9 15
-43 71 -76 125 -33 54 -65 107 -71 118 -6 11 -28 47 -50 80 -21 33 -49 80 -62
105 -14 25 -30 52 -37 60 -6 8 -52 82 -101 163 -49 81 -104 171 -121 200 -18
29 -40 66 -48 82 -22 43 -55 82 -55 67z"/>
</g>
</svg>
