<?xml version="1.0" encoding="utf-8"?>
<!-- Generator: Adobe Illustrator 16.0.4, SVG Export Plug-In . SVG Version: 6.00 Build 0)  -->
<!DOCTYPE svg PUBLIC "-//W3C//DTD SVG 1.1//EN" "http://www.w3.org/Graphics/SVG/1.1/DTD/svg11.dtd">
<svg version="1.1" id="Layer_1" xmlns="http://www.w3.org/2000/svg" xmlns:xlink="http://www.w3.org/1999/xlink" x="0px" y="0px"
	 width="248px" height="234.033px" viewBox="81.5 97.5 248 234.033" enable-background="new 81.5 97.5 248 234.033"
	 xml:space="preserve">
<g>
	<g>
		<path fill="#FFFFFF" d="M321.64,192.487c0.298-1.198,0.665-2.56,0.764-4.388v-16.555c-1.894-7.048-12.698-8.577-30.582-11.103
			l-1.497-0.2c-3.922-0.564-8.045-1.496-11.367-2.228c-1.064-0.232-2.029-0.464-2.859-0.631c1.229-0.897,3.656-3.324,3.79-3.457
			c1.361-1.629,1.994-4.455,1.96-8.677c-0.066-5.053-0.233-11.535-0.332-11.667c-0.1-0.066-2.228-1.595-6.448-1.595
			c-1.929,0-3.956,0.331-6.083,0.962c-1.563,0.465-3.491,1.197-4.788,1.796c-0.433-1.496-1.43-4.388-1.895-5.618
			c-0.532-1.296-9.307-10.006-19.846-15.657c-15.39-8.244-26.86-9.208-34.174-9.208c-0.897,0-1.728,0-2.658,0.033
			c-5.719,0.133-20.112,0.864-30.184,4.654c-13.43,5.052-26.062,11.501-33.775,17.253c-14.858,11.069-28.721,29.652-36.167,48.534
			c-1.529,3.889-2.825,6.98-3.823,9.44c-4.088,9.907-4.255,10.306-1.362,14.693c2.194,3.358,8.61,9.639,15.956,15.423
			c-1.895,4.322-10.771,19.217-29.652,47.205c0.665,1.362,1.363,2.761,2.194,4.287c-145.768,136.811-12.025,79.378-0.645,84.555
			c22.087,10.049,83.584-5.173,107.333-5.173c10.204,0,26.593-2.241,36.667-5c-0.232-0.932-5.5-16.307-5.8-17.437
			c-0.896-3.357-1.994-7.547-2.459-12.168c-4.155-42.25,21.074-71.501,21.242-71.735c0.099-0.034,10.637-3.124,42.25-7.346
			c23.9-3.193,30.749-18.384,34.008-31.281c0.099-0.533,0.032-1.065-0.034-1.529c-0.067-0.566-0.133-1.098,0.034-1.663
			c0.132-0.797,0.065-1.528,0-2.16c-0.067-0.499-0.102-0.93,0-1.263C321.439,193.252,321.539,192.886,321.64,192.487z"/>
		<path d="M204.161,145.184c0,0,5.319-9.474,15.658-10.305c0,0,1.428,0,4.753-0.232c3.19-0.2-3.658-3.69-8.376-2.626
			c-4.723,1.063-14.362,3.889-15.293,13.43C200.903,145.483,202.101,148.342,204.161,145.184z"/>
		<path d="M250.666,127.3c0,0,3.393-3.657,7.382-3.158c3.99,0.464,3.688,3.158,3.688,3.158l0.367,1.927c0,0-5.152-4.388-10.404,1.33
			c0,0-1.464,1.695-2.161,1.396C249.503,131.953,249.172,129.593,250.666,127.3z"/>
		<g>
			<path d="M262.734,135.278c0.633-0.299,1.329-0.566,2.026-0.699c-0.498-1.895-0.997-3.689-1.661-5.319
				c-2.427-5.95-6.714-9.572-20.443-16.92c-17.121-9.174-29.918-9.74-37.032-9.574c-2.13,0.066-18.583-0.133-29.918,4.122
				c-11.335,4.289-25.995,10.371-34.705,16.853c-14.228,10.572-29.319,30.916-36.965,50.263c-7.613,19.347-8.543,20.644-5.02,26.063
				c3.523,5.385,15.06,17.118,33.875,28.089c18.782,10.969,28.854,16.189,30.15-7.08s-8.544-34.805-9.674-43.548
				c-1.13-8.742-1.861-13.596,0.732-21.042c2.626-7.447-2.593-1.662-3.723,3.158s-1.297,21.939,3.523,33.874
				c4.854,11.902,3.923,34.44-1.295,35.537c-5.22,1.129-8.377,0.365-15.625-3.725c-7.247-4.088-18.217-12.832-26.627-20.842
				c-8.377-8.012-10.239-7.812-7.081-15.624c3.158-7.812,7.114-23.137,18.516-38.361c6.948-9.242,10.372-15.292,24.134-24.134
				c11.8-7.613,16.754-9.674,31.081-15.558c16.355-6.681,40.322-4.886,49.763-1.663c10.173,3.49,31.881,11.236,35.07,22.937
				C262.17,133.216,262.469,134.248,262.734,135.278z"/>
		</g>
		<path d="M284.475,129.693c-0.167-0.864-0.699-0.731-0.699-0.731s-6.88,0.1-14.99,2.559c-8.145,2.459-14.43,8.61-14.43,8.61
			c-6.482-0.599-10.802,3.989-10.802,3.989s-4.056-2.36-14.594-0.333c-10.539,2.062-22.938,7.214-22.938,7.214l-15.556,6.184
			l-38.329,16.587l1.43,9.109c0,0,24.199-14.66,40.953-20.91c2.062-0.765,3.325-1.131,8.111-3.291
			c4.788-2.127,5.985-1.563,7.614,0.399c1.628,1.961,3.723,6.017,5.518,9.274c1.761,3.258,6.482,4.654,8.742,4.62
			c2.261-0.033,5.22,0.034,12.532-3.423c7.312-3.458,8.179-9.475,8.71-12.167c0.531-2.726,0.564-7.047,2.527-9.109
			c1.96-2.061,4.854-3.723,7.845-2.56c0.465,0.698,2.959,2.228,2.959,2.228s0.198-1.197-0.466-3.756
			c-0.664-2.593,0.897-3.856,3.987-6.083c2.961-2.095,7.48-4.621,12.301-4.521c4.819,0.1,5.087,7.18,5.452,12.266
			c0.266,3.723-1.164,6.283-1.929,7.38c-0.83,1.03-2.459,2.56-5.551,3.657l3.456,0.798c0,0,2.792-0.798,4.554-3.491l0,0
			c0.999-1.196,2.195-4.022,2.13-9.107c-0.035-5.053,0.432-8.909,1.261-9.541c0.832-0.632,0.832-2.692,0.832-2.692
			S284.641,130.557,284.475,129.693z M234.545,167.822c-6.017,3.324-11.567,2.559-11.567,2.559
			c-3.027-0.631-5.686-4.454-6.684-7.047c-0.996-2.593-1.828-8.31-1.828-8.31c0.266-0.798,1.796-4.355,12.601-7.546
			c10.768-3.158,13.995-0.665,13.995-0.665C242.755,159.644,240.562,164.497,234.545,167.822z"/>
		<path d="M121.521,218.316c-2.162-1.628,0.199-1.927-1.23-3.257c0.333,2.494-5.717-1.962-5.784-1.829
			c-0.731,1.43-16.172,26.796-39.341,60.937c0.997,2.061,1.795,3.655,2.925,5.649c1.696-2.493,20.061-27.461,31.862-45.343
			C116.768,224.102,121.022,219.246,121.521,218.316z"/>
		<path d="M323.7,171.611c-1.895-7.114-14.727-9.674-33.176-12.299c-18.417-2.593-23.702-4.354-29.287-9.375
			c-5.584-5.02-6.181-8.644-6.181-8.644c-4.09-1.296-1.432,5.419,6.981,12.233c9.539,7.713,29.982,8.211,45.24,11.37
			c13.297,2.726,13.463,8.278,13.463,8.278s0.83,13.628,0.1,19.944c-0.731,6.316-7.445,28.39-26.826,33.607
			c-19.347,5.22-45.475,6.218-55.248,4.788c-16.688-2.394-7.646,3.357-3.924,3.724c3.725,0.365,9.11,0,9.11,0
			c-13.962,16.754-17.319,25.297-21.574,42.25c-4.291,16.921-0.73,40.955,0.731,47.835c0.1,0.5,2.179,6.942,2.28,7.408
			c1.86-0.366,2.992-0.632,5.053-1.197c-0.864-3.689-3.545-14.686-4.144-20.937c-4.222-42.815,19.182-69.411,19.182-69.411
			s10.604-4.452,42.617-8.74c25.197-3.358,31.113-21.341,33.839-31.979c0.167-1.098,0.434-2.194,0.731-3.259
			c0.268-1.396,0.333-2.559,0.534-3.389c0.363-1.564,0.363-3.326,0.497-5.685C323.7,182.648,323.7,175.9,323.7,171.611z"/>
		<path d="M310.771,181.351c0,0-0.998-6.115,1.826-5.185c2.626,0.864,3.125,5.651,0.599,7.446
			c-2.559,1.762-9.904,2.061-12.266-1.861c0,0-0.234-0.864,0.597-0.333c0.799,0.532-0.064,1.628,4.122,2.327
			C308.142,184.176,311.732,182.548,310.771,181.351z"/>
		<path d="M318.381,175.535c0,0,1.396-4.023,3.158,0.465c1.328,3.391,2.726,5.717-0.199,5.385
			C316.619,180.854,318.381,175.535,318.381,175.535z"/>
	</g>
</g>
</svg>
