<?xml version="1.0" encoding="UTF-8" standalone="no"?>
<svg width="292px" height="43px" viewBox="0 0 292 43" version="1.1" xmlns="http://www.w3.org/2000/svg" xmlns:xlink="http://www.w3.org/1999/xlink" xmlns:sketch="http://www.bohemiancoding.com/sketch/ns">
    <!-- Generator: Sketch 3.4.4 (17249) - http://www.bohemiancoding.com/sketch -->
    <title>Group</title>
    <desc>Created with Sketch.</desc>
    <defs></defs>
    <g id="About" stroke="none" stroke-width="1" fill="none" fill-rule="evenodd" sketch:type="MSPage">
        <g id="-black-logo" sketch:type="MSArtboardGroup" transform="translate(-6.000000, -2.000000)" fill="#000000">
            <g id="Group" sketch:type="MSLayerGroup" transform="translate(5.000000, 2.000000)">
                <path d="M62.3317,15.4266 L58.8447,15.4266 L58.8447,28.2736 L62.3317,28.2736 C66.0027,28.2736 68.5417,25.5516 68.5417,21.8506 C68.5417,18.1496 66.0027,15.4266 62.3317,15.4266 L62.3317,15.4266 Z M62.3317,11.1446 C68.3877,11.1446 72.8237,15.6716 72.8237,21.8506 C72.8237,28.0286 68.3877,32.5566 62.3317,32.5566 L54.5627,32.5566 L54.5627,11.1446 L62.3317,11.1446 Z" id="Fill-1" sketch:type="MSShapeGroup"></path>
                <path d="M82.5822,20.8415 C80.2882,20.8415 78.5142,22.4615 78.5142,24.9085 C78.5142,27.3565 80.2882,28.9765 82.5822,28.9765 C84.8762,28.9765 86.6502,27.3565 86.6502,24.9085 C86.6502,22.4615 84.8762,20.8415 82.5822,20.8415 M82.5822,16.8955 C87.2932,16.8955 90.8102,20.1375 90.8102,24.9085 C90.8102,29.6815 87.2932,32.9235 82.5822,32.9235 C77.8712,32.9235 74.3542,29.6815 74.3542,24.9085 C74.3542,20.1375 77.8712,16.8955 82.5822,16.8955" id="Fill-3" sketch:type="MSShapeGroup"></path>
                <path d="M101.3185,16.8952 C101.8695,16.8952 103.1495,17.1992 103.6385,17.3212 L103.6385,21.6652 C103.0885,21.4822 101.6245,21.2092 100.9815,21.2092 C98.3215,21.2092 97.1285,22.7072 97.1285,25.6432 L97.1285,32.5562 L93.0905,32.5562 L93.0905,17.2622 L96.9755,17.2622 L96.9755,19.7702 C97.8005,17.9962 99.1775,16.8952 101.3185,16.8952" id="Fill-5" sketch:type="MSShapeGroup"></path>
                <path d="M124.5691,16.8952 C128.1481,16.8952 130.3501,19.2812 130.3501,23.2572 L130.3501,32.5562 L126.2821,32.5562 L126.2821,24.0832 C126.2821,21.9122 125.3341,20.7792 123.5291,20.7792 C121.0511,20.7792 120.1641,22.6462 120.1641,25.2462 L120.1641,32.5562 L116.1271,32.5562 L116.1271,24.0832 C116.1271,21.9122 115.1781,20.7792 113.3431,20.7792 C110.8961,20.7792 110.0401,22.6462 110.0401,25.2462 L110.0401,32.5562 L106.0021,32.5562 L106.0021,17.2622 L109.9171,17.2622 L109.9171,19.4952 C110.8351,18.0262 112.3031,16.8952 114.6891,16.8952 C116.9531,16.8952 118.5741,17.8732 119.4301,19.7402 C120.3481,18.0882 122.0301,16.8952 124.5691,16.8952" id="Fill-7" sketch:type="MSShapeGroup"></path>
                <path d="M166.6113,20.3415 C164.3173,20.3415 162.5433,21.9615 162.5433,24.4085 C162.5433,26.8565 164.3173,28.4765 166.6113,28.4765 C168.9053,28.4765 170.6793,26.8565 170.6793,24.4085 C170.6793,21.9615 168.9053,20.3415 166.6113,20.3415 M166.6113,16.3955 C171.3223,16.3955 174.8393,19.6375 174.8393,24.4085 C174.8393,29.1815 171.3223,32.4235 166.6113,32.4235 C161.9003,32.4235 158.3833,29.1815 158.3833,24.4085 C158.3833,19.6375 161.9003,16.3955 166.6113,16.3955" id="Fill-9" sketch:type="MSShapeGroup"></path>
                <path d="M184.7179,20.3415 C182.4239,20.3415 180.6499,21.9615 180.6499,24.4085 C180.6499,26.8565 182.4239,28.4765 184.7179,28.4765 C187.0119,28.4765 188.7859,26.8565 188.7859,24.4085 C188.7859,21.9615 187.0119,20.3415 184.7179,20.3415 M184.7179,16.3955 C189.4289,16.3955 192.9459,19.6375 192.9459,24.4085 C192.9459,29.1815 189.4289,32.4235 184.7179,32.4235 C180.0069,32.4235 176.4899,29.1815 176.4899,24.4085 C176.4899,19.6375 180.0069,16.3955 184.7179,16.3955" id="Fill-11" sketch:type="MSShapeGroup"></path>
                <path d="M214.1117,16.3952 C217.6907,16.3952 219.8927,18.7812 219.8927,22.7572 L219.8927,32.0562 L215.8247,32.0562 L215.8247,23.5832 C215.8247,21.4122 214.8767,20.2792 213.0717,20.2792 C210.5937,20.2792 209.7067,22.1462 209.7067,24.7462 L209.7067,32.0562 L205.6697,32.0562 L205.6697,23.5832 C205.6697,21.4122 204.7207,20.2792 202.8857,20.2792 C200.4387,20.2792 199.5827,22.1462 199.5827,24.7462 L199.5827,32.0562 L195.5447,32.0562 L195.5447,16.7622 L199.4597,16.7622 L199.4597,18.9952 C200.3777,17.5262 201.8457,16.3952 204.2317,16.3952 C206.4957,16.3952 208.1167,17.3732 208.9727,19.2402 C209.8907,17.5882 211.5727,16.3952 214.1117,16.3952" id="Fill-13" sketch:type="MSShapeGroup"></path>
                <path d="M241.0091,10.6442 L241.0091,14.9262 L230.4651,14.9262 L230.4651,19.2092 L241.0091,19.2092 L241.0091,23.4912 L230.4651,23.4912 L230.4651,32.0562 L226.1841,32.0562 L226.1841,10.6442 L241.0091,10.6442 Z" id="Fill-15" sketch:type="MSShapeGroup"></path>
                <path d="M256.9054,16.7623 L256.9054,32.0563 L252.9904,32.0563 L252.9904,29.7313 C251.9504,31.2923 250.4204,32.4233 248.1264,32.4233 C244.5784,32.4233 242.8344,30.0373 242.8344,26.2753 L242.8344,16.7623 L246.9644,16.7623 L246.9644,25.2663 C246.9644,27.4383 247.7594,28.5393 249.5334,28.5393 C251.7974,28.5393 252.8374,26.7033 252.8374,24.0723 L252.8374,16.7623 L256.9054,16.7623 Z" id="Fill-17" sketch:type="MSShapeGroup"></path>
                <path d="M268.5954,16.3952 C272.1744,16.3952 274.0094,18.7202 274.0094,22.5742 L274.0094,32.0562 L269.8804,32.0562 L269.8804,23.5832 C269.8804,21.2882 268.8094,20.2792 267.0974,20.2792 C264.7414,20.2792 263.7634,22.0232 263.7634,24.7462 L263.7634,32.0562 L259.7254,32.0562 L259.7254,16.7622 L263.6404,16.7622 L263.6404,18.9652 C264.7114,17.4652 266.3624,16.3952 268.5954,16.3952" id="Fill-19" sketch:type="MSShapeGroup"></path>
                <path d="M280.5099,24.4086 C280.5099,26.8866 282.2229,28.5076 284.5169,28.5076 C286.7809,28.5076 288.5239,26.9176 288.5239,24.4086 C288.5239,21.8696 286.7809,20.3106 284.5169,20.3106 C282.2229,20.3106 280.5099,21.9316 280.5099,24.4086 L280.5099,24.4086 Z M292.4389,10.6446 L292.4389,32.0566 L288.4019,32.0566 L288.4019,29.9156 C287.3009,31.4746 285.5569,32.4546 283.3239,32.4546 C279.5309,32.4546 276.3499,29.5786 276.3499,24.4086 C276.3499,19.2396 279.5309,16.3636 283.2639,16.3636 C285.6489,16.3636 287.3619,17.4966 288.4019,18.9646 L288.4019,10.6446 L292.4389,10.6446 Z" id="Fill-21" sketch:type="MSShapeGroup"></path>
                <path d="M150.1261,18.2861 C150.1261,20.1351 148.8931,21.4921 146.8281,21.4921 L141.7131,21.4921 L141.7131,15.0491 L146.8301,15.0491 C148.8961,15.0491 150.1291,16.4061 150.1291,18.2551 L150.1261,18.2861 Z M157.7571,29.2901 C155.4131,30.1261 153.4381,28.6911 152.2041,26.3231 L151.2601,24.5101 C153.2411,23.1861 154.4601,20.9421 154.4601,18.2691 L154.4441,18.2551 C154.4441,13.9391 151.2691,10.7331 146.8301,10.7331 L146.7001,10.7331 L137.3981,10.7331 L137.3981,32.3111 L141.7131,32.3111 L141.7131,25.8071 L146.6771,25.8071 L146.8461,25.7911 C146.9471,25.7911 147.0441,25.7801 147.1431,25.7771 L148.5911,28.5551 C150.7721,32.7431 155.4511,34.2221 159.7401,32.1341 L157.7571,29.2901 Z" id="Fill-23" sketch:type="MSShapeGroup"></path>
                <path d="M12.5824,18.5505 L10.8104,18.5505 L10.8104,25.0785 L12.5824,25.0785 C14.4474,25.0785 15.7374,23.6955 15.7374,21.8155 C15.7374,19.9345 14.4474,18.5505 12.5824,18.5505 L12.5824,18.5505 Z M12.5824,16.3745 C15.6604,16.3745 17.9144,18.6755 17.9144,21.8155 C17.9144,24.9545 15.6604,27.2555 12.5824,27.2555 L8.6344,27.2555 L8.6344,16.3745 L12.5824,16.3745 Z" id="Fill-25" sketch:type="MSShapeGroup"></path>
                <path d="M36.3662,16.502 L36.3662,18.678 L31.5162,18.678 L31.5162,20.854 L36.3662,20.854 L36.3662,23.03 L31.5162,23.03 L31.5162,27.383 L29.3402,27.383 L29.3402,16.502 L36.3662,16.502 Z" id="Fill-27" sketch:type="MSShapeGroup"></path>
                <path d="M29.3572,27.3946 C29.6762,27.3066 29.9942,27.1856 30.3082,27.0226 L29.4392,25.5386 C29.4112,25.5526 29.3842,25.5616 29.3572,25.5736 L29.3572,27.3946 Z" id="Fill-29" sketch:type="MSShapeGroup"></path>
                <path d="M25.3354,20.0977 C25.3354,21.0297 24.7134,21.7137 23.6724,21.7137 L21.0934,21.7137 L21.0934,18.4657 L23.6734,18.4657 C24.7154,18.4657 25.3364,19.1497 25.3364,20.0817 L25.3354,20.0977 Z M28.4574,25.7647 C27.5954,25.7377 26.8734,25.0907 26.3834,24.1497 L25.9074,23.2357 C26.9064,22.5687 27.5214,21.4367 27.5214,20.0897 L27.5134,20.0817 C27.5134,17.9057 25.9124,16.2897 23.6734,16.2897 L23.6074,16.2897 L18.9174,16.2897 L18.9174,27.1697 L21.0934,27.1697 L21.0934,23.8907 L23.5964,23.8907 L23.6814,23.8817 C23.7324,23.8817 23.7814,23.8767 23.8314,23.8747 L24.5614,25.2757 C25.3714,26.8307 26.8644,27.6427 28.4574,27.5447 L28.4574,25.7647 Z" id="Fill-31" sketch:type="MSShapeGroup"></path>
                <path d="M22.1665,3.5247 C12.1495,3.5247 3.9995,11.6737 3.9995,21.6917 C3.9995,31.7097 12.1495,39.8587 22.1665,39.8587 C32.1835,39.8587 40.3335,31.7097 40.3335,21.6917 C40.3335,11.6737 32.1835,3.5247 22.1665,3.5247 M22.1665,42.8587 C10.4955,42.8587 0.9995,33.3637 0.9995,21.6917 C0.9995,10.0197 10.4955,0.5247 22.1665,0.5247 C33.8375,0.5247 43.3335,10.0197 43.3335,21.6917 C43.3335,33.3637 33.8375,42.8587 22.1665,42.8587" id="Fill-33" sketch:type="MSShapeGroup"></path>
            </g>
        </g>
    </g>
</svg>