<svg xmlns="http://www.w3.org/2000/svg" viewBox="0 0 123.957 93.559"><path fill="none" d="M0 96.006V0h123.957v96.006H0zm76.157-28.793c.352 3.098.22 10.44-.214 13.392-.536 3.673-1.645 7.107-4.092 10-.05.065-.05.185-.09.352 4.74.34 8.01-2.077 10.77-5.64 2.84 3.3 6.15 5.48 10.78 5.272V69.91c2.71.76 4.89 2.165 7.11 3.523 4.16-6.95 9.76-11.595 18.2-12.103-.17-.445-.3-.76-.42-1.077-.66-1.8-1.28-3.642-1.29-5.562-.07-11.82-.08-23.65-.12-35.48 0-.53.16-.91.54-1.28 1.48-1.42 2.94-2.86 4.4-4.3.24-.23.47-.49.82-.87-5.91-1.07-10.99-3.39-14.62-8.29-4.86 3.52-9.6 6.95-14.34 10.38l-.26-.13v-4.19H91.9c0 1.69-.02 3.28.012 4.88.01.59-.184.97-.673 1.29-1.22.81-2.4 1.67-3.6 2.5-.21.15-.45.23-.75.37-.12-.88-.2-1.64-.31-2.39-.45-2.97-1.32-5.76-3.36-8.07-1.57-1.77-3.41-2.95-5.83-3.33-7.52-1.2-15.13 5.14-14.09 13.58.09.77.33 1.52.5 2.28.35-.74.46-1.47.71-2.14.25-.68.6-1.33.98-1.95 1.97-3.24 7.41-3.46 9.48.33.44.82.83 1.71.98 2.62.23 1.467.31 2.97.33 4.46.03 2.19-.05 4.38-.09 6.57-.01.205-.04.408-.06.655-.26.04-.49.1-.73.11-.73.03-1.46 0-2.19.06-3.32.285-6.02 2.67-6.67 5.94-.61 3.12-.02 6.084 1.32 8.926.04.08.14.13.33.31.4-1.814 1.25-3.25 2.9-4.034 1.62-.766 3.31-.88 5.06-.604v13.38c-.3.04-.54.07-.77.108-.24.038-.48.068-.72.12-3.78.9-6.54 3.14-8.43 6.48-1.75 3.11-2.36 6.51-2.53 10.02-.01.07.08.147.13.23 3.99-4.423 8.38-6.57 12.32-6zM29.56 58.45c-3.38.05-6.632.49-9.743 1.696-3.15 1.222-5.957 2.99-8.476 5.23-2.7 2.405-5.87 6.354-6.05 7.48 9.74-5.3 19.44-5.225 29.17.372 6.9-6.24 15.27-9.225 24.45-10.57-.21-.522-.35-.903-.51-1.276-1-2.326-1.53-4.72-1.51-7.285.07-7.93.06-15.862.01-23.792-.02-3.092-.15-6.188-.39-9.27-.24-3.03-.88-6.013-2.27-8.732-2.34-4.575-6.15-7.173-11.26-7.728-4.14-.45-8.26.104-12.38.51-4.39.433-8.78.925-13.18 1.253-2.85.212-5.7-.038-8.5-.65-1.28-.28-2.54-.626-3.97-.982.04.81.02 1.53.11 2.236.34 2.666 1.01 5.183 3.08 7.11 1.27 1.184 2.71 2.06 4.36 2.58 2.42.764 4.92.972 7.43.77 2.84-.23 5.67-.583 8.5-.876.37-.038.74-.04 1.18-.062V58.45zM13.626 45.27c.07.147.126.208.126.27 0 2.57.07 5.145-.03 7.713-.088 2.228-.636 4.338-2.377 5.938-.03.03-.004.12-.004.24 3.18-.87 6.23-1.97 8.85-4.02 1.34-1.04 2.44-2.27 3.23-3.77.58-1.11 1.12-2.26 1.14-3.54.1-7.16.19-14.32.25-21.48.02-2.21.26-4.36 1.24-6.39.05-.1.03-.23.05-.43-2.09.58-3.91 1.49-5.66 2.56-3.6 2.2-5.68 5.43-6.45 9.53-.15.82-.23 1.64-.35 2.48-.87.1-1.7.18-2.52.29-3.12.43-5.1 2.21-5.85 5.28-.73 3.02-.42 6 .43 8.95.01.04.1.06.22.11.05-.32.09-.63.14-.93.25-1.5 1.23-2.51 2.7-2.81 1.66-.33 3.31-.02 4.91.02z"/><path fill="#AA1E22" d="M76.157 67.213c-3.945-.57-8.33 1.574-12.318 6.007-.06-.085-.14-.157-.13-.227.16-3.51.78-6.915 2.52-10.02 1.88-3.345 4.64-5.578 8.42-6.478.23-.056.48-.086.72-.123.23-.036.47-.065.77-.107V42.88c-1.75-.27-3.44-.16-5.06.605-1.66.784-2.5 2.22-2.91 4.034-.19-.18-.29-.24-.33-.32-1.34-2.84-1.93-5.81-1.32-8.93.64-3.28 3.34-5.66 6.67-5.94.72-.06 1.46-.04 2.19-.07.23-.01.46-.08.72-.12.02-.25.06-.45.06-.65.04-2.19.12-4.39.09-6.58-.02-1.49-.1-2.99-.33-4.46-.15-.9-.54-1.8-.98-2.61-2.07-3.79-7.51-3.58-9.48-.33-.38.62-.73 1.27-.98 1.95-.25.67-.36 1.39-.71 2.14-.17-.76-.4-1.52-.5-2.28-1.05-8.44 6.57-14.78 14.09-13.59 2.42.38 4.26 1.56 5.83 3.33 2.04 2.31 2.9 5.1 3.35 8.07.11.75.19 1.51.31 2.39.29-.15.54-.23.75-.37 1.2-.83 2.38-1.69 3.6-2.5.49-.33.68-.7.67-1.29-.04-1.6-.01-3.19-.01-4.88h1.42v4.19l.26.13L107.9 4.46c3.63 4.896 8.708 7.22 14.62 8.29-.353.38-.573.64-.815.875-1.46 1.44-2.92 2.89-4.4 4.31-.38.365-.546.748-.543 1.28.045 11.83.05 23.657.12 35.485.015 1.92.63 3.76 1.29 5.563.117.317.248.63.42 1.076-8.44.51-14.032 5.15-18.194 12.1-2.22-1.36-4.398-2.77-7.105-3.53V90.6c-4.638.21-7.94-1.974-10.78-5.274-2.77 3.562-6.03 5.98-10.77 5.64.042-.166.04-.284.095-.352 2.45-2.892 3.558-6.326 4.095-10 .42-2.957.555-10.3.204-13.397zm17.482-11.37c4.77 1.32 8.6 4.155 12.56 7.045V19c-3.88-.13-6.39-2.173-8.04-5.56-1.27.974-2.4 1.9-3.6 2.728-.71.49-.96 1.043-.95 1.9.02 12.172.02 24.344.02 36.516v1.258zM91.81 18c-1.31.974-2.38 1.86-3.543 2.603-.9.574-1.164 1.273-1.16 2.316.027 16.97.02 33.95.02 50.93 0 2.36.013 4.73.06 7.09.04 1.76.398 3.45 1.29 5 .73 1.26 1.81 2.04 3.333 2.43V18zM29.56 58.45V16.467c-.44.022-.812.023-1.18.062-2.834.29-5.663.64-8.502.87-2.51.2-5.005-.01-7.425-.77-1.65-.52-3.087-1.4-4.36-2.58C6.02 12.12 5.35 9.6 5.018 6.94c-.088-.71-.072-1.43-.108-2.237 1.43.356 2.693.703 3.972.982 2.802.61 5.653.86 8.502.648 4.4-.328 8.786-.82 13.18-1.254 4.116-.41 8.235-.96 12.38-.51 5.115.55 8.922 3.15 11.266 7.73 1.394 2.72 2.035 5.7 2.273 8.73.242 3.08.376 6.18.396 9.27.05 7.93.06 15.86-.01 23.79-.02 2.56.51 4.96 1.51 7.28.16.37.3.75.51 1.27-9.17 1.36-17.55 4.34-24.44 10.58-9.73-5.6-19.43-5.67-29.17-.37.18-1.13 3.35-5.08 6.05-7.48 2.52-2.24 5.32-4.01 8.47-5.23 3.11-1.21 6.36-1.65 9.74-1.69zm1.722-.003c.3.07.562.153.83.192 3.056.44 5.817 1.6 8.267 3.47.9.69 1.76 1.47 2.56 2.28.44.44.83.56 1.36.26.12-.07.25-.11.38-.16 1.43-.6 1.28-.28 1.28-1.83-.03-12.73-.07-25.45-.08-38.18 0-1.34-.21-2.61-.54-3.9-.7-2.66-2.44-4.16-5.01-4.74-3.01-.68-6-.04-9.06.25v42.32z"/><path fill="#AA1E22" d="M13.626 45.27c-1.607-.044-3.252-.354-4.912-.02-1.475.297-2.446 1.307-2.698 2.812-.05.3-.09.6-.14.93-.12-.06-.203-.074-.214-.11-.853-2.95-1.162-5.932-.43-8.95.744-3.067 2.73-4.846 5.85-5.276.822-.113 1.647-.19 2.522-.288.12-.843.204-1.668.357-2.48.78-4.107 2.85-7.337 6.46-9.533 1.76-1.07 3.58-1.98 5.67-2.554-.02.2.01.33-.04.43-.97 2.03-1.21 4.18-1.23 6.39-.06 7.16-.14 14.32-.24 21.48-.02 1.28-.55 2.43-1.14 3.54-.78 1.5-1.89 2.74-3.23 3.78-2.62 2.05-5.67 3.15-8.84 4.02 0-.12-.02-.21.01-.24 1.74-1.6 2.29-3.71 2.38-5.94.1-2.56.03-5.14.03-7.71 0-.06-.05-.12-.12-.27z"/><path fill="none" d="M93.64 55.842v-1.258c0-12.172.007-24.344-.02-36.516-.003-.857.246-1.412.95-1.9 1.195-.828 2.322-1.753 3.596-2.73 1.646 3.39 4.16 5.43 8.03 5.562v43.888c-3.95-2.89-7.778-5.724-12.557-7.046zM91.814 18v70.385c-1.52-.394-2.605-1.17-3.334-2.434-.89-1.54-1.25-3.24-1.287-5-.05-2.36-.06-4.73-.06-7.09-.006-16.98.005-33.95-.024-50.93-.01-1.04.26-1.74 1.16-2.31 1.16-.74 2.23-1.63 3.54-2.6zM31.282 58.447v-42.32c3.056-.29 6.045-.935 9.056-.256 2.566.58 4.312 2.09 5.008 4.74.338 1.29.54 2.56.542 3.9.013 12.73.055 25.45.08 38.18.004 1.56.156 1.23-1.28 1.83-.128.06-.264.1-.385.16-.53.3-.918.19-1.36-.26-.804-.81-1.655-1.59-2.563-2.28-2.45-1.87-5.21-3.03-8.268-3.48-.27-.03-.53-.12-.83-.19z"/></svg>