<svg xmlns="http://www.w3.org/2000/svg" version="1.1" x="0" y="0" viewBox="0 0 376 62" width="376" height="62" enable-background="new 0 0 376 62" xml:space="preserve"><polygon fill="#B92025" points="45.6 21.7 45.6 21.7 45.6 21.7 "/><path fill="#B92025" d="M37.3 43.1c0 0-6.2 2.3-7.1 2.7 -0.9 0.4-0.1 0.2-0.1 0.2s6.3-2.2 7.3-2.7C38.4 43 37.3 43.1 37.3 43.1zM115.5 35.5L115.5 35.5c-1.4-0.6-5.1-2.1-11.5-3.3 0-0.9 0-1.9-0.1-2.9 2.9 0.8 5.4 1.4 7.1 1.9 0.1 0.1 0.2 0.1 0.3 0.2 0.6 0.4 4.3 2.7 4.4 2.5 0.1-0.3-2.6-1.9-4-3.1 -6.1-4.6-6.8-7.6-6.8-7.6l0 0c-0.1-0.1-0.1-0.2-0.2-0.3 0-0.2 0.1-0.4 0.7-0.7 0.9-0.5-1.9-0.5-1.9-0.5l0 0c-1.6-0.1-0.7 0.7-1.9 1.5 -5.6 4.2-26.9-5.8-26.9-5.8 -2.1-1.1-4-2.1-5.7-3.1 -0.9-0.4-1.7-0.9-2.5-1.5 -1.4-0.8-2.9-1.6-4.3-2.5l0 0c-0.3-0.2-0.2 0-0.1 0.1 2.5 2 5.6 4.2 9 5.6 6.6 2.7-1.1 0-7.7-3.7 0.5 0.4 1 0.8 1.4 1.1 -0.5-0.4-1.1-0.8-1.6-1.2 -2.2-1.3-4.3-2.6-5.7-3.9 -1.8-1.7-1.2-1.4 0.3-0.3 0.3 0.2 2.1 1.8 2.2 1.6 0-0.1-1.8-1.6-2.1-1.8 -0.8-0.8-1.4-1.5-1.7-2 -0.5-0.8-0.2-0.7 0.7 0 0 0 0.9 0.8 1.5 1.2l0 0c0 0 0.5 0.4 0.3-0.1 -0.3-0.4-0.9-1-1.2-1.3 -0.3-0.3-0.5-0.6-0.7-0.9 0 0 0-0.1 0-0.1 -1.3-1.9-1.2-3.1-0.8-3.7C56.2 0.2 55.6 0 54.7 0l0 0c-1.2 0-2.6 0.3-3.4 0.6 0 0 0 0 0 0C50.9 0.7 50.4 0.9 50 1c-2 0.8-1.4 3.6-9.1 11.6 -6.9 7.1-14.8 7.3-16.9 7.2l0 0c-0.1 0-0.2 0-0.3 0 0 0 0 0 0 0 -0.2 0-0.3 0-0.5 0 -4.6 0.5 1.4 5-7.5 7.4l0 0c-0.4 0.1-0.1 0.2-0.1 0.2 2 0 9.1-0.7 11.7-0.9 0.5 0 0.4 0.1 0.3 0.2 -3.1 1.1-14.8 5.2-3.1 1.8 13.4-3.8 14.8-5.9 18.5-8.5 2.1-1.5 5.4-4.5 7.8-6.9 0 0 0.1 0 0.1 0.1l0 0c-0.1 2-0.3 4.6-0.4 7.4l0 0 0 0.2c0 0 0 0 0 0l0 0c0 0-0.1 0-0.1 0 0 0 0 0 0 0 0 0 0 0-0.1 0l0 0c-2.2 0.1-4.1 0.5-4.5 0.6 -0.4 0.1-0.8 0.3-1.1 0.4 -1.2 0.4-3 1.2-4.8 2.3 -2.4 1.5-1.5 1.7-1 1.8 0 0 0.1 0 0.1 0 0 0 0 0 0 0l0 0c0.2 0 0.6 0.1 0.9 0.5 0.1 0.1 0.2 0.3 0.3 0.4 0.4 0.4 1.6 1.2 2.9 0.2 0 0-0.2 0.9 0.7 1.1 0.1 0 0.6 0.1 1-0.4l0 0c0.3-0.3 0.5-0.6 0.8-0.9l0 0c0 0 0.4-0.6 1.2-1.1 0.1-0.1 0.2-0.1 0.3-0.2 0 0 0 0 0.1 0 0.1 0 0.1-0.1 0.2-0.1 0.8-0.4 1.7-0.7 2.9-0.6 0 0 0 0 0 0 -0.1 3.1-0.1 5.8-0.2 7.9l0 0c0 0.2-0.2 0.3-0.2 0.3l0 0c-16 2.5-29.7 6.4-41.6 9.9 -0.2 0.1-0.6 0.4 0.2 0.2l0 0 25.9-5.5c0.4 0 0.2 0.2 0.1 0.2 -7.3 2-21.6 6-30.1 9.4 -0.1 0-0.1 0-0.1 0.1 -0.7 0.3-1.2 0.5-1.5 0.8 0 0 0 0 0 0 0 0 0 0 0 0 -0.1 0.1-0.2 0.1-0.2 0.2 0 0 0 0 0 0 -0.4 0.3-0.5 0.5-0.5 0.5l0 0c-1 1.5 2.7 2.9-2 6.9l0 0c-0.2 0.2 0 0.2 0 0.2 1-0.5 4-2.3 6.2-3.5 2-1.2 2.2 0.2 2.2 0.5 0 0.4-1.2 1.4-0.7 1.5 0.6 0.1 0.3 0.4-1.5 2.4 -0.6 0.7 0.2 0.2 1.5-0.7l0.4-0.3c0 0 4.4-3.5 4.7-3.6 0.1 0 0.2 0 0.2 0 0.8-0.6 1.5-1.1 1.9-1.4l-1.9 1.4c0.1 0 0.1 0.1-0.1 0.3 -0.2 0.2-8.3 6.2-10.7 7.9l-0.7 0.5c0 0.1-0.1 0.3 0.2 0.1 0 0 0 0 0 0 4.7-3 14.7-9.2 24.1-14.1l0 0 0.3-0.1c0.1-0.1 0.3-0.1 0.4-0.2 0 0 0 0 0 0l0.1 0 0 0c0.5-0.3 1-0.5 1.5-0.7l0 0c0 0 0.4-0.1 0.4-0.3l0 0c0-0.1 0-0.2-0.3-0.1 -0.2 0-0.5 0.1-0.5 0.1l0 0 -7.9 2.4c-0.1 0-0.3 0 0.1-0.2l0 0 13-4.6 3.3-1 1.7-0.5c4.4-1.7 8.3-2.9 11.8-3.9 0.1 0 0.2 0 0.3 0.2l0 0c0.1 0.4 0.1 1.2 0.1 1.2l0 0c0 0.2 0 0.3 0 0.5 0 0-0.1 4.7-1.1 5.2 -0.3 0.2-0.8 0.3-1.4 0.5l0 0 -2.6 0.5 -0.4 0.1c0 0 0 0 0 0l0 0c0 0 0 0 0 0 -0.1 0-0.1 0-0.1 0.1l0 0c0 0 0.1 0 0.4 0 0.4-0.1 1.6-0.3 2.3-0.5l0.3 0c0.2 0 0.3 0 0.1 0.1l-0.5 0.2c-0.4 0.1-0.7 0.2-0.5 0.2 0 0 0 0 0.1 0l0 0 0.3-0.1c0.5-0.1 1.4-0.3 1.8-0.3 0.1 0 0.2 0 0.3 0.1 0 0 0 0 0 0 0 0 0 0 0 0.1l0 0c0 0.1-0.1 0.2-0.1 0.2 -0.2 0.1-0.7 0.3-1.7 0.6 0 0-1.3 0.3 0 0.1 1-0.2 1.9-0.5 2.3-0.5 0.1 0 0.2 0 0.3 0.1l0 0c0 0.1 0.1 0.2 0.3 0.2 0.3 0.1 0 0.2 0 0.2L48.2 47l-0.1 0c0 0-1.3 0.3-1.3 0.4 0 0 0.5-0.1 0.9-0.2l2.1-0.5c0.2 0 0.2 0 0.1 0 0 0-1.2 0.4-1.1 0.4 0 0 0 0 0 0l0 0 0 0c0.2 0 0.8-0.2 1.1-0.3l0.8-0.3c0.1 0 0.1 0 0.1 0 0 0-0.8 0.4-0.7 0.5 0 0.1 0.9-0.4 1.3-0.6 0 0 0.1 0 0.1-0.1 0 0 0.1 0 0.2 0 0.1 0.1-0.1 0.3-0.1 0.3l0 0c-0.4 0.4-1 0.9-1.3 1 0 0-0.5 0.4 0.1 0.1 0.6-0.3 1.4-0.7 1.7-0.7 0 0 0.1 0 0.1 0 0 0 0.1 0 0.1-0.1 0.4-0.1 0.9-0.5 1.3-0.8 1-0.6 1.8-2.3 1.8-4.6l0 0c0-0.3-0.1-0.9-0.1-1.7 -0.1-0.9-0.1-2.1-0.2-3.6 0 0 0.1-0.1 0.1-0.1l5.3-1c2.7-0.5 5.5-0.9 8.5-1.4 4.2-0.6 8.2-1 12.1-1.2 0 0 0.1 0 0.1 0v0c8.2-0.4 15.5 0 21.3 0.7 0 0.4 0 0.8 0 1.1 -1.8-0.2-3.8-0.3-5.9-0.4C95 34 86.5 33.6 80.5 34.1c-0.1 0-0.2 0-0.4 0 -0.3 0-0.6 0.1-0.9 0.1l0 0c0 0-0.9 0.1-1.8 0.2 -8.4 0.9-11.6 1.6-12.7 2 0 0 0 0 0 0 0 0 0 0-0.1 0 -0.2 0-0.3 0.1-0.3 0.1 -0.6 0.2-1.3 0.5 0.3 0.2 2.3-0.4 1.9 0.1 1.7 0.1 -0.2 0-0.2 0.4 1 0 1.1-0.4 7.9-1.5 8-0.7 0 0-0.1 0.2-0.7 0.4 -0.8 0.3-0.2 0.2-0.1 0.2 0.3-0.1 1.3-0.3 2.1-0.5 0 0 0.1 0 0.1 0l2-0.3c1.7-0.2 3.9-0.5 6.6-0.6 0.5 0 1 0 1.5-0.1 0.1 0 0.2 0 0.2 0l0 0c3-0.1 7.1-0.2 11.4-0.1 0 0 0 0 0 0 1.4 0 2.8 0.1 4.1 0.2 0 0.6 0.1 1.1 0.2 1.3 0.6 1.4 1.5 0.4 1.3-1 0-0.1 0-0.1 0-0.2 0.7 0 1.3 0.1 1.9 0.1 0.7 0.1 1.3 0.1 2 0.2l-1.1-0.1c3.7 0.3 6.5 0.7 8.1 0.9 0.1 0 0.2 0 0.3 0 0 0 0 0 0 0l0 0c0-0.1-0.1-0.1-0.2-0.1 0 0 0 0 0 0 -1.8-0.4-5.3-1.2-11-1.8 0-0.3 0-0.7 0-1.1 5.9 0.7 9.9 1.6 11.4 2l0 0C115.5 35.6 115.8 35.6 115.5 35.5zM22.4 48L22.4 48c-0.4 0.1-0.7 0.2-0.9 0.3L22.4 48zM17.2 48l-0.4 0.1C16.8 48.2 17 48.1 17.2 48L17.2 48zM32.9 42.8c-1 0.4-3.4 1.2-4.5 1.6l-6.9 2.2 0 0c-0.6 0.2-0.3 0-0.1-0.1 1.6-0.6 3.5-1.2 5.5-1.9 0.5-0.2 2.1-0.8 2.3-0.9l0 0c1.9-0.8 5.2-2 5.4-1.9C34.7 42 33.9 42.4 32.9 42.8zM39.3 40.8L39.3 40.8l0.2-0.1L39.3 40.8zM102.3 24.3c0 0 0.4-0.2 0.8-0.1 0 0.3-0.1 1.9-0.2 3.7 -2.8-0.9-6-1.9-9.6-2.9C96.4 25.5 99.9 25.5 102.3 24.3zM68.5 16.2c-0.1 0.2-1.6-1.2-3.7-2.8C66.9 14.9 68.6 16.1 68.5 16.2zM54.4 20.4c0.1-0.3 0.4-2.5-0.7-6.5l0 0 -0.1-0.5c0-0.2-0.1-0.5-0.1-0.5 0 0 0 0.1 0 0.3l0.2 1.9 0 0 0.3 2.6 0 0c0 0.3 0 0.2-0.1 0.2l-0.4-2.2 0 0c-0.1-0.5-0.2-0.1-0.2-0.1l-0.4 5.1c0 0 0 0-0.1 0 0 0 0 0 0 0l0.3-6.9 0-0.6 0.1-3.1 0-0.4c0 0 0.1 0 0.1 0.2l0 0 0.6 3.8c0 0.1 0.1 0.4 0.1 0.4l0 0c0 0 0 0 0-0.3l-0.3-4.2c0 0 0 0 0 0.1 0 0 0 0 0 0 0.1 0.5 0.2 1.3 0.3 2.1 0 0 0.1 0.2 0.1 0 0-0.2 0-0.3 0-0.5 0-0.2 0-0.5 0-0.7l0-0.3c0-0.1 0.1-0.2 0.4-0.1l0.3 0.3 0 0c0.1 0.1 0.1 0.1 0.2 0.2 0 0 0 0 0 0l1 0.9c0 0 2.6 2 3.3 2.3 3 1.9 7.7 4.3 14.4 6.5 3.5 1.2 6.6 2.1 9.3 3 -9.8-2.2-18.6-2.7-24.5-2.7l0 0c-0.1 0-0.3 0-0.6 0 -0.2 0-0.3 0-0.5 0l0 0C56.7 20.3 55.4 20.4 54.4 20.4L54.4 20.4zM66.3 21.9L66.3 21.9C66.4 21.9 66.6 22 66.3 21.9l-8.6-0.3c0 0 0 0 0 0 1.3 0 3.7 0 6.3 0.1L63 21.6c0 0-0.1 0 0.1 0 1.3 0 4.6 0.1 7.1 0.2 0 0 0.1 0 0 0 -1.8 0-4 0-6.1-0.1L66.3 21.9zM54 36.8l0-0.2c0 0 0 0 0 0L54 36.8zM61.3 31.4c-0.3 0-0.7 0.1-1 0.1l-0.2 0c-0.4 0-0.7 0.1-1.1 0.1 0 0 0 0 0 0L55 32.2c0-1-0.1-2-0.1-3.1 0-0.1 0-0.1 0-0.2 0-1.1 0-1.5-0.1-1.6 0 0 0 0 0 0l0 0c0 0 0 0 0 0 -0.2 0.1-0.3 4.2-0.3 4.2 0 0.6-0.1 0.7-0.1 0.7l0 0 0 0c0 0 0 0-0.1 0 -0.1 0-0.1-0.8-0.1-0.8l0 0 0.1-7.4c1.1-0.2 2.8-0.4 3.4-0.5l0 0 0.3 0c0.8-0.1 1.6-0.2 2.4-0.2 -0.3 0-0.6 0-0.8 0l0.8 0c1.7-0.1 3.4-0.2 5.1-0.2l0 0c0 0 0.6 0 0.6-0.1 0-0.1-0.2-0.2-0.7-0.2l-7.6-0.6c0 0-0.1-0.1 0-0.1l11.3 0L68 22.1l0 0c0 0-0.1 0 0 0l2.9 0.1c0 0 0.1 0 0 0l-1.9 0 3.7 0.5c0 0 0.1 0.1 0 0.1l0 0 -5.9-0.1c-0.2 0-0.2 0-0.2 0.1 0 0.1 0.3 0.1 0.3 0.1l1.3 0.1 3.6 0.4 0 0c0 0 2.6 0.2 2.8 0.2l0 0c0.2 0 0.4 0 0.4 0.1 0 0-0.2 0-0.3 0 0 0 0 0 0 0 -0.2 0-0.4 0-0.5 0 -0.2 0-0.1 0-0.1 0 0 0 0 0 0.1 0 0.4 0 1.1 0.1 1.5 0.1l0 0c9.8 1.1 19.9 3.3 27.2 5.2 0 1-0.1 2-0.1 3C93.8 30.3 80.3 29.4 61.3 31.4zM103.9 28c0-1.3 0-2.4-0.1-3.2 0 0 2.5 2.7 5.8 5.3L103.9 28z"/><path fill="#141414" d="M140.1 31.6v-1.8h6.7v6.7c-1.7 2-4.3 3.4-7.2 3.4 -5.6 0-9.8-3.8-9.8-9.4 0-5.4 4.4-9.4 9.8-9.4 2.7 0 5.1 1.2 6.7 3.1l-1.4 1.1c-1.3-1.4-3.3-2.4-5.4-2.4 -4.4 0-7.7 3.2-7.7 7.6 0 4.6 3.1 7.6 7.7 7.6 2.1 0 3.9-0.7 5.3-2v-4.6H140.1zM162.2 33.3c0 3.7-2.6 6.6-6.4 6.6 -3.8 0-6.4-3-6.4-6.6 0-3.7 2.6-6.6 6.4-6.6C159.5 26.7 162.2 29.7 162.2 33.3M155.8 28.3c-2.8 0-4.6 2.4-4.6 5 0 2.6 1.7 5 4.6 5 2.8 0 4.6-2.4 4.6-5C160.3 30.7 158.6 28.3 155.8 28.3"/><rect x="164.6" y="20.2" fill="#141414" width="1.8" height="19.4"/><path fill="#141414" d="M179.4 38c-1 1.3-2.5 1.9-4.1 1.9 -3.7 0-6.5-3-6.5-6.6 0-3.6 2.8-6.7 6.5-6.7 1.4 0 3 0.5 4 1.6v-8h1.8v19.4h-1.8V38zM179.4 30.3c-0.9-1.2-2.6-2-4-2 -2.7 0-4.7 2.3-4.7 5 0 2.7 1.9 5.1 4.7 5.1 1.6 0 3.3-0.9 4-2.4V30.3zM186 33.8c0.2 2.4 1.8 4.7 4.5 4.7 1.7 0 3.1-0.5 4-2.2l1.2 0.8c-1 1.9-3.2 2.9-5.1 2.9 -4.1 0-6.4-3-6.4-6.7 0-3.7 2.7-6.6 6.2-6.6 3.3 0 5.6 2.8 5.6 5.9 0 0.4-0.1 0.9-0.1 1.2H186zM190.5 28.2c-2.4 0-4 1.7-4.4 4.1h8.3C194.2 30.2 192.6 28.2 190.5 28.2M200.8 27v2.2c1-1.7 2.6-2.5 4.5-2.5 3.6 0 4.8 2.3 4.8 6.1v6.8h-1.8v-6.6c0-2.4-0.4-4.8-3.3-4.8 -1.9 0-3.4 1.3-4.2 3v8.4h-1.8V27H200.8zM230.8 31.6v-1.8h6.7v6.7c-1.7 2-4.3 3.4-7.2 3.4 -5.6 0-9.8-3.8-9.8-9.4 0-5.4 4.4-9.4 9.8-9.4 2.7 0 5.1 1.2 6.7 3.1l-1.4 1.1c-1.3-1.4-3.3-2.4-5.4-2.4 -4.4 0-7.7 3.2-7.7 7.6 0 4.6 3.1 7.6 7.7 7.6 2.1 0 3.9-0.7 5.3-2v-4.6H230.8zM248.9 38.2c-1.2 1.3-2.7 1.8-4.1 1.8 -2.3 0-4.4-1.4-4.4-3.8 0-3.1 2.9-4.3 5.6-4.3 0.9 0 1.7 0.1 2.9 0.4v-0.7c0-2.1-1-3.3-3.2-3.3 -1.5 0-3.1 0.5-4.1 1.1l-0.6-1.6c1.2-0.5 3.1-1.1 4.8-1.1 3.8 0 4.9 2 4.9 5.2v7.7H249L248.9 38.2zM245.9 33.3c-1.7 0-3.8 0.7-3.8 2.7 0 1.5 1.2 2.5 2.7 2.5 1.5 0 2.8-0.8 4-1.9v-2.9C247.8 33.4 246.8 33.3 245.9 33.3M256.4 28.6v7c0 2.3 0.8 2.7 1.9 2.7 0.5 0 1-0.1 1.6-0.3l0.4 1.4c-0.6 0.3-1.3 0.5-2 0.5 -2.5 0-3.7-1.5-3.7-4.1v-7.2h-1.8V27h1.8v-3.2h1.8V27h3.7v1.6H256.4zM263.1 33.8c0.2 2.4 1.8 4.7 4.5 4.7 1.7 0 3.1-0.5 4-2.2l1.2 0.8c-1 1.9-3.2 2.9-5.1 2.9 -4.1 0-6.4-3-6.4-6.7 0-3.7 2.7-6.6 6.2-6.6 3.3 0 5.6 2.8 5.6 5.9 0 0.4-0.1 0.9-0.1 1.2H263.1zM267.6 28.2c-2.4 0-4 1.7-4.4 4.1h8.3C271.4 30.2 269.7 28.2 267.6 28.2"/><polygon fill="#141414" points="289.1 39.7 287.3 39.7 281 21.5 283.2 21.5 288.2 36.8 288.2 36.8 294 21.5 296 21.5 "/><path fill="#141414" d="M296.9 33.8c0.2 2.4 1.8 4.7 4.5 4.7 1.7 0 3.1-0.5 4-2.2l1.2 0.8c-1 1.9-3.2 2.9-5.1 2.9 -4.1 0-6.4-3-6.4-6.7 0-3.7 2.7-6.6 6.2-6.6 3.3 0 5.6 2.8 5.6 5.9 0 0.4-0.1 0.9-0.1 1.2H296.9zM301.3 28.2c-2.4 0-4 1.7-4.4 4.1h8.3C305.1 30.2 303.5 28.2 301.3 28.2M311.5 27v2.2c1-1.7 2.6-2.5 4.5-2.5 3.6 0 4.8 2.3 4.8 6.1v6.8H319v-6.6c0-2.4-0.4-4.8-3.3-4.8 -1.9 0-3.4 1.3-4.2 3v8.4h-1.8V27H311.5zM326.4 28.6v7c0 2.3 0.8 2.7 1.9 2.7 0.5 0 1-0.1 1.6-0.3l0.4 1.4c-0.6 0.3-1.3 0.5-2 0.5 -2.5 0-3.7-1.5-3.7-4.1v-7.2h-1.8V27h1.8v-3.2h1.8V27h3.7v1.6H326.4zM342.2 39.7v-2.2c-1 1.7-2.6 2.5-4.5 2.5 -3.6 0-4.8-2.3-4.8-6.1V27h1.8v6.6c0 2.4 0.4 4.8 3.3 4.8 1.9 0 3.4-1.3 4.2-3V27h1.8v12.6H342.2zM349 29.4c0.7-1.4 1.9-2.7 3.7-2.7 0.3 0 0.7 0 1.1 0.1l-0.2 1.9c-0.4-0.2-0.7-0.2-1.2-0.2 -1.5 0-2.4 1.1-3.3 2.7v8.4h-1.8V27h1.8V29.4zM355.9 33.8c0.2 2.4 1.8 4.7 4.5 4.7 1.7 0 3.1-0.5 4-2.2l1.2 0.8c-1 1.9-3.2 2.9-5.1 2.9 -4.1 0-6.4-3-6.4-6.7 0-3.7 2.7-6.6 6.2-6.6 3.3 0 5.6 2.8 5.6 5.9 0 0.4-0.1 0.9-0.1 1.2H355.9zM360.3 28.2c-2.4 0-4 1.7-4.4 4.1h8.3C364.1 30.2 362.5 28.2 360.3 28.2M374.4 29.1c-0.7-0.5-1.6-0.9-2.6-0.9 -1 0-2.2 0.5-2.2 1.7 0 1.5 1.6 2 3.2 2.7 1.6 0.6 3.1 1.5 3.1 3.8 0 2.2-2.3 3.6-4.5 3.6 -1.4 0-2.9-0.6-3.9-1.7l1.1-1.1c0.8 0.8 1.7 1.3 2.9 1.3 1.2 0 2.6-0.6 2.6-2.1 0-1.4-1.3-2-2.8-2.5 -1.7-0.7-3.4-1.4-3.4-3.7 0-2.2 1.8-3.4 3.9-3.4 1.3 0 2.5 0.4 3.5 1.2L374.4 29.1z"/></svg>