<?xml version="1.0" encoding="utf-8"?>
<!-- Generator: Adobe Illustrator 19.2.1, SVG Export Plug-In . SVG Version: 6.00 Build 0)  -->
<svg version="1.1" id="Layer_1" xmlns="http://www.w3.org/2000/svg" xmlns:xlink="http://www.w3.org/1999/xlink" x="0px" y="0px"
	 viewBox="0 0 470.9 51.8" style="enable-background:new 0 0 470.9 51.8;" xml:space="preserve">
<style type="text/css">
	.st0{fill:#0B73B5;}
</style>
<g>
	<path class="st0" d="M11.3,4.1c0.5-1.2,1.3-2.1,2.6-2.8H0c1.2,0.7,2,1.5,2.5,2.5C3,5,3.3,7.3,3.3,10.6v29.5c0,3-0.2,5.2-0.6,6.5
		c-0.5,1.2-1.4,2.2-2.6,2.8h13.9c-1.2-0.7-2-1.5-2.5-2.5c-0.5-1.3-0.8-3.6-0.8-6.9V10.6C10.6,7.6,10.8,5.4,11.3,4.1"/>
	<path class="st0" d="M59.2,4.1c0.6,1.1,1,3,1,5.7v28.7L33.1,3.9c-1-1.3-1.6-2.2-1.8-2.7H20.6C21.8,2,22.8,3,23.4,4.1
		c0.6,1.1,1,3,1,5.7v31c0,2.5-0.3,4.3-0.8,5.4c-0.7,1.3-1.7,2.4-3,3.3h13.1c-1.3-0.8-2.2-1.8-2.9-2.9c-0.6-1.2-1-3-1-5.7V11.5
		l25.6,32.6c2.9,3.8,6.2,6.4,10.1,7.7v-42c0-2.5,0.3-4.3,0.8-5.4c0.7-1.3,1.7-2.4,3-3.3H56.3C57.5,2,58.5,3,59.2,4.1"/>
	<path class="st0" d="M172.6,4.1c0.5-1.2,1.4-2.2,2.6-2.8h-13.9c1.2,0.6,2,1.5,2.5,2.5c0.5,1.3,0.8,3.6,0.8,6.9v23.8
		c0,1.6-0.2,2.9-0.5,3.9c-0.6,1.6-1.6,3-3.2,4.2c-2.4,1.9-5.1,2.8-8.3,2.8c-2.7,0-5-0.7-7-2c-2.1-1.4-3.6-3.3-4.3-5.7
		c-0.4-1.2-0.6-3.1-0.6-5.7V10.6c0-3,0.2-5.2,0.6-6.5c0.5-1.2,1.4-2.2,2.6-2.8H130c1.2,0.6,2,1.5,2.5,2.5c0.5,1.3,0.8,3.6,0.8,6.9
		v21.3c0,3.4,0.2,5.8,0.5,7.2c0.8,3.5,2.6,6.3,5.4,8.3c3,2.2,6.7,3.3,11.2,3.3c4,0,7.6-1,10.8-2.9c1.4-0.9,2.6-2,3.7-3.4v5.1h10.4
		c-1.2-0.6-2-1.5-2.5-2.5c-0.5-1.3-0.8-3.6-0.8-6.9V10.6C171.9,7.6,172.1,5.4,172.6,4.1"/>
	<path class="st0" d="M193.2,4.1c0.5-1.2,1.3-2.1,2.6-2.8h-13.9c1.2,0.7,2,1.5,2.5,2.5c0.5,1.3,0.8,3.6,0.8,6.9v29.5
		c0,3-0.2,5.2-0.6,6.5c-0.5,1.2-1.4,2.2-2.6,2.8h13.9c-1.2-0.7-2-1.5-2.5-2.5c-0.5-1.3-0.8-3.6-0.8-6.9V10.6
		C192.5,7.6,192.7,5.4,193.2,4.1"/>
	<path class="st0" d="M233.3,38.4c-4.1-4.9-7.4-9.1-9.9-12.5c3.9-1,7-2.8,9.2-5.6c1.8-2.2,2.7-4.6,2.7-7c0-1.7-0.4-3.3-1.2-4.9
		c-0.9-1.8-2.1-3.3-3.6-4.4c-2.6-1.9-6.2-2.8-10.9-2.8c-0.8,0-1.8,0-3.1,0.1c-2.1,0.1-3.2,0.1-3.4,0.1h-10.6c1.2,0.7,2,1.5,2.5,2.5
		c0.5,1.3,0.8,3.6,0.8,6.9v29.5c0,3-0.2,5.2-0.6,6.5c-0.5,1.2-1.4,2.2-2.6,2.8h13.9c-1.2-0.7-2-1.5-2.5-2.5
		c-0.5-1.3-0.8-3.6-0.8-6.9V6.3c2-0.4,3.6-0.6,5-0.6c2.6,0,4.7,0.7,6.3,2.1c1.8,1.6,2.7,3.5,2.7,6c0,5.6-4.1,9.1-12.3,10.5
		c1.9,3.2,3.9,6.2,5.9,9.1c5.2,7.4,9.2,12.2,12,14.3c1.8,1.4,4,2,6.5,2c1.1,0,3.3-0.1,6.6-0.4C241.9,47.4,237.7,43.7,233.3,38.4"/>
	<path class="st0" d="M267.7,44.1c-3,0-6-0.2-9-0.7V25.9h6.5c1.7,0,3,0.2,4,0.5c0.7,0.3,1.3,0.8,1.8,1.5v-7.8
		c-0.7,0.3-1.6,0.5-2.5,0.5h-9.8V6.9c1.9-0.3,4.4-0.5,7.5-0.5c2.5,0,4.5,0.2,5.8,0.7c1.1,0.4,2.1,1.1,3.2,2.1V0.8
		c-0.7,0.3-1.7,0.4-2.7,0.4H248c1.2,0.6,2,1.4,2.5,2.5c0.5,1.3,0.8,3.6,0.8,6.9V40c0,3-0.2,5.2-0.6,6.5c-0.5,1.2-1.4,2.2-2.6,2.9
		h30.5l3.4-9.6c-1.6,1.3-3.3,2.2-5,2.8C274.4,43.6,271.3,44.1,267.7,44.1"/>
	<path class="st0" d="M421.7,44.1c-3,0-6-0.2-9-0.7V25.9h6.5c1.7,0,3,0.2,4,0.5c0.7,0.3,1.3,0.8,1.8,1.5v-7.8
		c-0.7,0.3-1.6,0.5-2.5,0.5h-9.8V6.9c1.9-0.3,4.4-0.5,7.5-0.5c2.5,0,4.5,0.2,5.8,0.7c1.1,0.4,2.1,1.1,3.2,2.1V0.8
		c-0.7,0.3-1.7,0.4-2.7,0.4h-24.4c1.2,0.6,2,1.4,2.5,2.5c0.5,1.3,0.8,3.6,0.8,6.9V40c0,3-0.2,5.2-0.6,6.5c-0.5,1.2-1.4,2.2-2.6,2.9
		h30.5l3.4-9.6c-1.6,1.3-3.3,2.2-5,2.8C428.4,43.6,425.3,44.1,421.7,44.1"/>
	<path class="st0" d="M314.3,38.4c-4.1-4.9-7.4-9.1-9.9-12.5c3.9-1,7-2.8,9.2-5.6c1.8-2.2,2.7-4.6,2.7-7c0-1.7-0.4-3.3-1.2-4.9
		c-0.9-1.8-2.1-3.3-3.6-4.4c-2.6-1.9-6.2-2.8-10.9-2.8c-0.8,0-1.8,0-3.1,0.1c-2.1,0.1-3.2,0.1-3.4,0.1h-10.6c1.2,0.7,2,1.5,2.5,2.5
		c0.5,1.3,0.8,3.6,0.8,6.9v29.5c0,3-0.2,5.2-0.6,6.5c-0.5,1.2-1.4,2.2-2.6,2.8h13.9c-1.2-0.7-2-1.5-2.5-2.5
		c-0.5-1.3-0.8-3.6-0.8-6.9V6.3c2-0.4,3.6-0.6,5-0.6c2.6,0,4.7,0.7,6.3,2.1c1.8,1.6,2.7,3.5,2.7,6c0,5.6-4.1,9.1-12.3,10.5
		c1.9,3.2,3.9,6.2,5.9,9.1c5.2,7.4,9.2,12.2,12,14.3c1.8,1.4,4,2,6.5,2c1.1,0,3.3-0.1,6.6-0.4C322.9,47.4,318.7,43.7,314.3,38.4"/>
	<path class="st0" d="M99.3,45.4c-7,0-12.2-3.2-15.7-9.6c-2-3.6-3-7.4-3-11.4c0-3.1,0.6-6,1.8-8.7c1.4-3.3,3.6-5.8,6.5-7.6
		C92,6.2,95.4,5.2,99,5.2c5.6,0,10.2,2.1,13.7,6.4c3.3,4,5,8.9,5,14.5c0,5.3-1.5,9.7-4.4,13.2C109.9,43.4,105.2,45.4,99.3,45.4
		 M124,44.5h-7.4c1.7-1.4,3.3-3.1,4.6-4.9c3.2-4.4,4.7-9.3,4.7-14.6c0-3.8-0.9-7.5-2.6-11.1c-2.4-4.9-6-8.5-10.8-10.9
		c-4-2-8.2-3-12.8-3C95.2,0,90.9,0.9,87,2.7C82.3,4.9,78.8,8,76.2,12c-2.6,4.2-4,8.7-4,13.5c0,3.3,0.7,6.5,2,9.6c1.7,4,4.4,7.3,8,10
		c4.8,3.6,10.4,5.4,16.7,5.4c3.9,0,7.6-0.7,11.1-2.2c0.4-0.1,0.7-0.3,1-0.5l-3.1,3.8c1.2-0.4,2.3-0.7,3.3-0.8
		c0.9-0.1,2.3-0.2,4.2-0.2h8.7c0.9,0,1.5-0.1,1.9-0.2c0.5-0.1,1.1-0.6,1.7-1.3l4.5-6c-1.1,0.5-2.2,0.8-3.2,1
		C128.1,44.5,126.4,44.5,124,44.5"/>
	<path class="st0" d="M340.7,45.6c0,1.3-0.4,2.3-1.3,3.2c-0.9,0.9-1.9,1.3-3.1,1.3c-1.3,0-2.3-0.4-3.2-1.3c-0.9-0.9-1.3-1.9-1.3-3.2
		c0-1.2,0.4-2.3,1.3-3.1c0.9-0.9,1.9-1.3,3.2-1.3c1.2,0,2.2,0.4,3,1.3C340.3,43.4,340.7,44.4,340.7,45.6z"/>
	<path class="st0" d="M470.9,0.8l-2.4,8.7c-0.6-1.2-1.6-2.1-2.9-2.4c-0.8-0.2-2.1-0.3-4-0.3c-0.4,0-1,0-1.8,0.1
		c-0.9,0.1-2,0.1-3.3,0.1h-1.2v33.9c0,2.4,0.3,4.2,0.8,5.3c0.5,1.1,1.5,2.2,3.1,3.3h-14.5c1.6-0.8,2.6-2.2,3-4.1
		c0.2-0.9,0.3-2.6,0.3-5.3V6.9c-1.4-0.1-3.4-0.2-5.9-0.2c-2.2,0-3.9,0.1-5,0.4c-1.4,0.4-2.9,1.2-4.5,2.4l2.7-8.7
		c1,0.3,2.2,0.5,3.7,0.5h27.5c0.6,0,1.5,0,2.8-0.1C469.6,1.1,470.1,1,470.9,0.8z"/>
	<path class="st0" d="M386,4.1c0.6,1.1,1,3,1,5.7v28.7L359.8,3.9c-1-1.3-1.6-2.2-1.8-2.7h-10.7c1.2,0.8,2.2,1.8,2.9,2.9
		c0.6,1.1,1,3,1,5.7v31c0,2.5-0.3,4.3-0.8,5.4c-0.7,1.3-1.7,2.4-3,3.3h13.1c-1.3-0.8-2.2-1.8-2.9-2.9c-0.6-1.2-1-3-1-5.7V11.5
		l25.6,32.6c2.9,3.8,6.2,6.4,10.1,7.7v-42c0-2.5,0.3-4.3,0.8-5.4c0.7-1.3,1.7-2.4,3-3.3h-13.1C384.3,2,385.3,3,386,4.1"/>
</g>
</svg>
