<svg id="Layer_1" data-name="Layer 1" xmlns="http://www.w3.org/2000/svg" width="250" height="99.41" viewBox="0 0 250 99.41"><defs><style>.cls-1{fill:#fff;}.cls-2{fill:#222;}</style></defs><title>logo</title><path class="cls-1" d="M182.18,0l-3,7.79H158.85v9.74H176.3l-2.75,7.2h-14.7v17.4h-9.26V0Z"/><path class="cls-1" d="M198.09,0l15.75,42.13h-9.62L201,32.75H185.28L182,42.13h-9.32L188.59,0Zm.53,25.85-5.31-15.46h-.12L187.7,25.85Z"/><path class="cls-1" d="M214.71,30.53V0h19.83A26.27,26.27,0,0,1,240,.53a11.87,11.87,0,0,1,4.25,1.74A8.1,8.1,0,0,1,247,5.49a11.3,11.3,0,0,1,1,5,9.23,9.23,0,0,1-1.45,5.31,10.5,10.5,0,0,1-4.28,3.48,10.13,10.13,0,0,1,5.81,3.92A11.68,11.68,0,0,1,250,29.92a11.59,11.59,0,0,1-1.24,5.52,10.74,10.74,0,0,1-3.33,3.81,14.75,14.75,0,0,1-4.78,2.18,21.53,21.53,0,0,1-5.52.71H219.05m14.31-25.08a6.66,6.66,0,0,0,4.07-1.18A4.46,4.46,0,0,0,239,12a4.9,4.9,0,0,0-.53-2.42,3.93,3.93,0,0,0-1.42-1.48,6,6,0,0,0-2-.74,13.57,13.57,0,0,0-2.39-.21H224V17Zm.53,17.88a12.38,12.38,0,0,0,2.6-.27,6.37,6.37,0,0,0,2.18-.89,4.46,4.46,0,0,0,1.5-1.68,5.79,5.79,0,0,0,.56-2.71q0-3.24-1.83-4.63a7.81,7.81,0,0,0-4.84-1.39H224V34.93Z"/><path class="cls-1" d="M9.21,0,26.79,28.26h.12V0h8.67V42.13H26.32L8.79,13.93H8.67v28.2H0V0Z"/><path class="cls-1" d="M67.29,0l5.43,7.79H50.48v9H70.9V24H50.48V34.34H71.9l-5.43,7.79H41.22V0Z"/><path class="cls-1" d="M74.38,0H85.12l8.26,13.45L101.94,0h10.15L98.57,20.12l14.69,22h-11L93,27.56,83.64,42.13H73.26L88,20.06Z"/><path class="cls-1" d="M113.5,7.79,118.68,0h26V7.79H134.42V42.13h-9.26V7.79Z"/><path class="cls-2" d="M182.18,57.27l-3,7.79H158.85V74.8H176.3L173.55,82h-14.7V99.4h-9.26V57.27Z"/><path class="cls-2" d="M198.09,57.27,213.84,99.4h-9.62L201,90H185.28L182,99.4h-9.32l15.91-42.13Zm.53,25.85-5.31-15.46h-.12L187.7,83.12Z"/><path class="cls-2" d="M214.71,87.8V57.27h19.83a26.27,26.27,0,0,1,5.46.53,11.87,11.87,0,0,1,4.25,1.74A8.1,8.1,0,0,1,247,62.76a11.3,11.3,0,0,1,1,5,9.23,9.23,0,0,1-1.45,5.31,10.5,10.5,0,0,1-4.28,3.48,10.13,10.13,0,0,1,5.81,3.92,12.8,12.8,0,0,1,.68,12.24,10.74,10.74,0,0,1-3.33,3.81,14.75,14.75,0,0,1-4.78,2.18,21.53,21.53,0,0,1-5.52.71H219.05m14.31-25.08a6.66,6.66,0,0,0,4.07-1.18A4.46,4.46,0,0,0,239,69.27a4.9,4.9,0,0,0-.53-2.42,3.93,3.93,0,0,0-1.42-1.48,6,6,0,0,0-2-.74,13.57,13.57,0,0,0-2.39-.21H224v9.85Zm.53,17.88a12.38,12.38,0,0,0,2.6-.27,6.37,6.37,0,0,0,2.18-.89,4.46,4.46,0,0,0,1.5-1.68,5.79,5.79,0,0,0,.56-2.71q0-3.24-1.83-4.63a7.81,7.81,0,0,0-4.84-1.39H224V92.2Z"/><path class="cls-2" d="M9.21,57.27,26.79,85.53h.12V57.27h8.67V99.4H26.32L8.79,71.2H8.67V99.4H0V57.27Z"/><path class="cls-2" d="M67.29,57.27l5.43,7.79H50.48v9H70.9v7.21H50.48V91.61H71.9L66.47,99.4H41.22V57.27Z"/><path class="cls-2" d="M74.38,57.27H85.12l8.26,13.45,8.56-13.45h10.15L98.57,77.39l14.69,22h-11L93,84.83,83.64,99.4H73.26L88,77.33Z"/><path class="cls-2" d="M113.5,65.06l5.18-7.79h26v7.79H134.42V99.4h-9.26V65.06Z"/></svg>