<?xml version="1.0" encoding="utf-8"?>
<!-- Generator: Adobe Illustrator 15.1.0, SVG Export Plug-In . SVG Version: 6.00 Build 0)  -->
<!DOCTYPE svg PUBLIC "-//W3C//DTD SVG 1.1//EN" "http://www.w3.org/Graphics/SVG/1.1/DTD/svg11.dtd">
<svg version="1.1" id="Layer_1" xmlns="http://www.w3.org/2000/svg" xmlns:xlink="http://www.w3.org/1999/xlink" x="0px" y="0px"
	 width="165.393px" height="42.624px" viewBox="0 0 165.393 42.624" enable-background="new 0 0 165.393 42.624"
	 xml:space="preserve">
<path fill-rule="evenodd" clip-rule="evenodd" fill="#01256E" d="M101.361,23.87v-5.236c-1.69,0.733-6.049,1.793-6.049,4.066
	c0,1.502,1.127,2.75,2.705,2.75C99.445,25.45,100.273,24.675,101.361,23.87 M101.412,17.729v-3.997c0-1.464-0.94-1.854-2.327-1.854
	c-1.354,0-3.3,0.914-3.309,1.707c-0.003,0.222,0.088,0.49,0.088,0.857c0,1.392-0.353,2.334-1.967,2.334
	c-0.676,0-1.125-0.66-1.125-1.246c0-0.807,0.563-1.576,1.354-2.237c1.687-1.391,4.392-2.527,6.609-2.527
	c2.292,0,3.53,1.354,3.53,3.555v9.823c0,0.621,0,1.723,0.863,1.723c0.602,0,0.941-0.768,1.054-1.248h0.602
	c-0.188,1.76-0.938,2.787-2.743,2.787c-1.39,0-2.553-1.248-2.592-2.527c-1.767,1.279-2.967,2.527-5.298,2.527
	c-1.728,0-3.343-1.357-3.343-3.117C92.808,20.259,98.368,19.013,101.412,17.729"/>
<path fill-rule="evenodd" clip-rule="evenodd" fill="#01256E" d="M134.319,19.07c0,2.823,1.054,7.487,4.734,7.487
	c3.57,0,4.812-3.709,4.812-6.606c0-3.114-0.45-8.44-4.773-8.44C135.409,11.511,134.319,16.324,134.319,19.07 M131.126,18.925
	c0-4.436,3.192-8.21,7.853-8.21c4.924,0,8.077,3.7,8.077,8.355c0,4.765-3.08,8.286-8.04,8.286
	C133.984,27.356,131.126,23.581,131.126,18.925"/>
<path fill="#01256E" d="M39.821,2.445V1.594h8.54v0.852c-1.578,0.036-2.177,0.03-2.177,0.982c0,0.037,0.025,0.291,0.176,0.657
	l5.149,17.487L58.751,0.76h0.597l6.32,20.556c0,0,4.997-15.028,4.997-17.155c0-1.685-1.062-1.569-2.416-1.715V1.594l5.235-0.007
	C75.79,1.588,78.139,0.803,79.476,0v13.296c1.62-1.441,3.005-2.603,5.333-2.603c1.729,0,3.345,0.77,4.209,2.237
	c0.791,1.283,0.938,2.492,0.938,3.92v7.367c0,1.908,0.489,1.908,2.144,2.018v0.695h-7.141v-0.695c1.542-0.109,2.03-0.109,2.03-2.018
	v-7.367c0-1.174,0-1.687-0.526-2.786c-0.603-1.065-1.672-2.091-3.044-1.868c-2.067,0.334-2.865,1.3-3.943,2.329v9.692
	c0,1.908,0.49,1.908,2.063,2.018v0.695h-7.211v-0.695c1.689-0.109,2.178-0.109,2.178-2.018V2.669
	c0.044-0.03-0.585-0.006-1.349,0.012c-2.884,0.182-2.959,2.37-3.877,4.999l-6.474,19.718h-0.676L57.743,7.632l-7.401,19.766h-0.638
	L42.877,5.699c-0.407-1.133-0.601-2.089-1.201-2.711C41.335,2.657,41.321,2.44,39.821,2.445"/>
<path fill="#01256E" d="M154.611,26.952v-0.695c-1.617-0.111-2.104-0.111-2.104-2.02v-8.683c0-1.689,2.252-3.228,3.872-3.228
	c2.439,0,3.754,1.538,3.754,3.85v8.061c0,1.908-0.484,1.908-2.179,2.02v0.695h7.439v-0.695c-1.276-0.111-2.291-0.111-2.291-2.02
	v-8.683c0-2.75-2.781-4.84-5.487-4.84c-2.367,0-3.567,1.096-5.108,2.635v-2.635c-1.617,0.587-3.327,1.437-5.09,1.673v0.58
	c1.566,0.167,2.122,0.668,2.122,2.06v9.21c0,1.908-0.487,1.908-2.18,2.02v0.695"/>
<path fill="#01256E" d="M115.085,26.952v-0.695c-1.918-0.111-2.407-0.111-2.407-2.02v-9.711c0-0.586,0.974-1.5,2.032-1.513
	c0.974-0.016,1.147,1.132,2.371,1.132c1.503,0,1.873-0.804,1.873-1.901c0-1.138-1.224-1.787-2.594-1.787
	c-1.614,0-2.864,1.404-3.755,2.636v-2.488c-1.706,0.782-3.55,1.51-5.231,1.776v0.587c1.676,0.174,2.336,0.57,2.336,1.997v9.272
	c0,1.908-0.488,1.908-2.103,2.02v0.695"/>
<path fill="#01256E" d="M131.039,11.61l0.544-2.017h-6.466V6.328h-0.379c-1.51,1.794-2.965,3.317-4.71,4.861v0.421h2.052v11.048
	c0,2.62,1.185,4.796,4.025,4.796c2.439,0,4.299-1.773,5.306-2.955l-0.448-0.625c-0.887,0.994-2.06,1.566-3.123,1.566
	c-2.169,0-2.723-1.168-2.723-3.187V11.61"/>
<path fill="#01256E" d="M41.493,36.931c0,1.246,0.337,2.199,1.666,2.199c1.222,0,1.865-0.818,1.865-2.242v-2.482
	c0-0.186-0.037-0.334-0.054-0.477c-0.045-0.324-0.35-0.449-0.77-0.492v-0.23h2.104v0.23c-0.427,0.043-0.722,0.168-0.766,0.492
	c-0.017,0.143-0.054,0.291-0.054,0.477v2.516c0,1.916-1.22,2.629-2.371,2.629c-1.896,0-2.485-0.961-2.485-2.574v-2.656
	c0-0.828,0.039-0.785-0.768-0.883v-0.23h2.397v0.23c-0.8,0.098-0.767,0.055-0.767,0.883"/>
<path fill="none" stroke="#01256E" stroke-width="0.374" stroke-miterlimit="3.864" d="M41.493,36.931
	c0,1.246,0.337,2.199,1.666,2.199c1.222,0,1.865-0.818,1.865-2.242v-2.482c0-0.186-0.037-0.334-0.054-0.477
	c-0.045-0.324-0.35-0.449-0.77-0.492v-0.23h2.104v0.23c-0.427,0.043-0.722,0.168-0.766,0.492c-0.017,0.143-0.054,0.291-0.054,0.477
	v2.516c0,1.916-1.22,2.629-2.371,2.629c-1.896,0-2.485-0.961-2.485-2.574v-2.656c0-0.828,0.039-0.785-0.768-0.883v-0.23h2.397v0.23
	c-0.8,0.098-0.767,0.055-0.767,0.883V36.931z"/>
<path fill="#01256E" d="M51.353,39.442c-1.095-1.291-2.229-2.646-3.352-3.967v3.039c0,0.145,0.03,0.262,0.043,0.369
	c0.033,0.25,0.269,0.348,0.721,0.381v0.178h-1.685v-0.178c0.332-0.033,0.558-0.131,0.593-0.381c0.014-0.107,0.04-0.225,0.04-0.369
	v-3.24c-0.191-0.246-0.407-0.465-0.796-0.465v-0.178h1.25c1.022,1.24,2.091,2.508,3.116,3.752h0.014V35.56
	c0-0.146-0.026-0.262-0.041-0.373c-0.035-0.248-0.271-0.342-0.724-0.377v-0.178h1.687v0.178c-0.325,0.035-0.56,0.129-0.592,0.377
	c-0.013,0.111-0.043,0.227-0.043,0.373v3.883"/>
<path fill="none" stroke="#01256E" stroke-width="0.374" stroke-miterlimit="3.864" d="M51.353,39.442
	c-1.095-1.291-2.229-2.646-3.352-3.967v3.039c0,0.145,0.03,0.262,0.043,0.369c0.033,0.25,0.269,0.348,0.721,0.381v0.178h-1.685
	v-0.178c0.332-0.033,0.558-0.131,0.593-0.381c0.014-0.107,0.04-0.225,0.04-0.369v-3.24c-0.191-0.246-0.407-0.465-0.796-0.465v-0.178
	h1.25c1.022,1.24,2.091,2.508,3.116,3.752h0.014V35.56c0-0.146-0.026-0.262-0.041-0.373c-0.035-0.248-0.271-0.342-0.724-0.377
	v-0.178h1.687v0.178c-0.325,0.035-0.56,0.129-0.592,0.377c-0.013,0.111-0.043,0.227-0.043,0.373v3.883H51.353z"/>
<path fill="#01256E" d="M54.747,38.583c0,0.641-0.03,0.605,0.59,0.68v0.18h-1.849v-0.18c0.619-0.074,0.591-0.039,0.591-0.68v-3.094
	c0-0.639,0.028-0.605-0.591-0.68v-0.178h1.849v0.178c-0.62,0.074-0.59,0.041-0.59,0.68"/>
<path fill="none" stroke="#01256E" stroke-width="0.374" stroke-miterlimit="3.864" d="M54.747,38.583c0,0.641-0.03,0.605,0.59,0.68
	v0.18h-1.849v-0.18c0.619-0.074,0.591-0.039,0.591-0.68v-3.094c0-0.639,0.028-0.605-0.591-0.68v-0.178h1.849v0.178
	c-0.62,0.074-0.59,0.041-0.59,0.68V38.583z"/>
<path fill="#01256E" d="M58.333,34.81c-0.376,0-0.652,0.107-0.428,0.768c0.27,0.813,0.669,1.994,1.024,3.039
	c0.44-1.051,0.86-2.109,1.289-3.162c0.171-0.432-0.011-0.645-0.479-0.645v-0.178h1.486v0.178c-0.198,0-0.424,0.066-0.571,0.414
	c-0.576,1.406-1.159,2.811-1.738,4.219h-0.352c-0.416-1.189-0.885-2.514-1.306-3.684c-0.253-0.736-0.467-0.949-0.798-0.949v-0.178
	h1.871"/>
<path fill="none" stroke="#01256E" stroke-width="0.374" stroke-miterlimit="3.864" d="M58.333,34.81
	c-0.376,0-0.652,0.107-0.428,0.768c0.27,0.813,0.669,1.994,1.024,3.039c0.44-1.051,0.86-2.109,1.289-3.162
	c0.171-0.432-0.011-0.645-0.479-0.645v-0.178h1.486v0.178c-0.198,0-0.424,0.066-0.571,0.414c-0.576,1.406-1.159,2.811-1.738,4.219
	h-0.352c-0.416-1.189-0.885-2.514-1.306-3.684c-0.253-0.736-0.467-0.949-0.798-0.949v-0.178h1.871V34.81z"/>
<path fill="#01256E" d="M62.288,39.265c0.617-0.076,0.59-0.041,0.59-0.682v-3.094c0-0.639,0.027-0.605-0.59-0.68v-0.178h3.073v1.105
	h-0.179c-0.068-0.512-0.208-0.887-0.702-0.887h-0.937v1.965h0.579c0.435,0,0.62-0.172,0.633-0.598h0.18v1.465h-0.18
	c-0.013-0.404-0.172-0.645-0.633-0.645h-0.579v1.555c0,0.584,0.271,0.631,0.888,0.631c1,0,0.948-0.281,1.268-1.018h0.176
	l-0.206,1.236h-3.381"/>
<path fill="none" stroke="#01256E" stroke-width="0.374" stroke-miterlimit="3.864" d="M62.288,39.265
	c0.617-0.076,0.59-0.041,0.59-0.682v-3.094c0-0.639,0.027-0.605-0.59-0.68v-0.178h3.073v1.105h-0.179
	c-0.068-0.512-0.208-0.887-0.702-0.887h-0.937v1.965h0.579c0.435,0,0.62-0.172,0.633-0.598h0.18v1.465h-0.18
	c-0.013-0.404-0.172-0.645-0.633-0.645h-0.579v1.555c0,0.584,0.271,0.631,0.888,0.631c1,0,0.948-0.281,1.268-1.018h0.176
	l-0.206,1.236h-3.381V39.265z"/>
<path fill="#01256E" d="M67.132,34.632h1.997c0.696,0,1.392,0.361,1.392,1.168c0,0.707-0.435,1.193-0.963,1.402l0.673,1.023
	c0.345,0.502,0.727,0.986,0.971,1.129v0.088h-0.71c-0.405,0-0.626-0.748-1.458-2.129h-0.645v1.27c0,0.641-0.03,0.605,0.591,0.682
	v0.178h-1.848v-0.178c0.616-0.076,0.591-0.041,0.591-0.682v-3.094c0-0.639,0.025-0.605-0.591-0.68V34.632 M68.389,37.093h0.57
	c0.599,0,0.871-0.453,0.871-1.232c0-0.748-0.411-1.01-0.914-1.01h-0.527V37.093z"/>
<path fill="none" stroke="#01256E" stroke-width="0.374" stroke-miterlimit="3.864" d="M67.132,34.632h1.997
	c0.696,0,1.392,0.361,1.392,1.168c0,0.707-0.435,1.193-0.963,1.402l0.673,1.023c0.345,0.502,0.727,0.986,0.971,1.129v0.088h-0.71
	c-0.405,0-0.626-0.748-1.458-2.129h-0.645v1.27c0,0.641-0.03,0.605,0.591,0.682v0.178h-1.848v-0.178
	c0.616-0.076,0.591-0.041,0.591-0.682v-3.094c0-0.639,0.025-0.605-0.591-0.68V34.632 M68.389,37.093h0.57
	c0.599,0,0.871-0.453,0.871-1.232c0-0.748-0.411-1.01-0.914-1.01h-0.527V37.093z"/>
<path fill="#01256E" d="M74.605,35.655c-0.057-0.48-0.316-0.867-0.867-0.867c-0.399,0-0.756,0.207-0.756,0.715
	c0,0.482,0.482,0.77,1.169,1.287c0.727,0.543,0.962,0.893,0.962,1.463c0,0.82-0.838,1.273-1.665,1.273
	c-0.438,0-0.817-0.084-1.174-0.221c-0.029-0.014-0.046-0.041-0.046-0.096v-0.99h0.178c0.075,0.762,0.576,1.066,1.106,1.066
	c0.487,0,0.886-0.373,0.886-0.875c0-0.447-0.24-0.809-1.273-1.492c-0.369-0.25-0.83-0.516-0.83-1.264
	c0-0.621,0.688-1.105,1.479-1.105c0.295,0,0.688,0.031,0.963,0.129c0.042,0.012,0.046,0.043,0.046,0.074v0.902"/>
<path fill="none" stroke="#01256E" stroke-width="0.374" stroke-miterlimit="3.864" d="M74.605,35.655
	c-0.057-0.48-0.316-0.867-0.867-0.867c-0.399,0-0.756,0.207-0.756,0.715c0,0.482,0.482,0.77,1.169,1.287
	c0.727,0.543,0.962,0.893,0.962,1.463c0,0.82-0.838,1.273-1.665,1.273c-0.438,0-0.817-0.084-1.174-0.221
	c-0.029-0.014-0.046-0.041-0.046-0.096v-0.99h0.178c0.075,0.762,0.576,1.066,1.106,1.066c0.487,0,0.886-0.373,0.886-0.875
	c0-0.447-0.24-0.809-1.273-1.492c-0.369-0.25-0.83-0.516-0.83-1.264c0-0.621,0.688-1.105,1.479-1.105
	c0.295,0,0.688,0.031,0.963,0.129c0.042,0.012,0.046,0.043,0.046,0.074v0.902H74.605z"/>
<path fill="#01256E" d="M77.745,38.583c0,0.641-0.025,0.605,0.593,0.68v0.18h-1.854v-0.18c0.62-0.074,0.597-0.039,0.597-0.68v-3.094
	c0-0.639,0.023-0.605-0.597-0.68v-0.178h1.854v0.178c-0.618,0.074-0.593,0.041-0.593,0.68"/>
<path fill="none" stroke="#01256E" stroke-width="0.374" stroke-miterlimit="3.864" d="M77.745,38.583
	c0,0.641-0.025,0.605,0.593,0.68v0.18h-1.854v-0.18c0.62-0.074,0.597-0.039,0.597-0.68v-3.094c0-0.639,0.023-0.605-0.597-0.68
	v-0.178h1.854v0.178c-0.618,0.074-0.593,0.041-0.593,0.68V38.583z"/>
<path fill="#01256E" d="M81.935,38.583c0,0.641-0.028,0.605,0.589,0.68v0.18h-1.848v-0.18c0.616-0.074,0.593-0.039,0.593-0.68
	v-3.732h-0.622c-0.599,0-0.733,0.375-0.961,0.83h-0.174l0.188-1.049h3.805l0.184,1.049h-0.174c-0.226-0.455-0.362-0.83-0.962-0.83
	h-0.617"/>
<path fill="none" stroke="#01256E" stroke-width="0.374" stroke-miterlimit="3.864" d="M81.935,38.583
	c0,0.641-0.028,0.605,0.589,0.68v0.18h-1.848v-0.18c0.616-0.074,0.593-0.039,0.593-0.68v-3.732h-0.622
	c-0.599,0-0.733,0.375-0.961,0.83h-0.174l0.188-1.049h3.805l0.184,1.049h-0.174c-0.226-0.455-0.362-0.83-0.962-0.83h-0.617V38.583z"
	/>
<path fill="#01256E" d="M85.888,39.265c0.62-0.076,0.592-0.041,0.592-0.682v-1.059l-1.056-2.098
	c-0.229-0.447-0.421-0.617-0.739-0.617v-0.178h1.754v0.178c-0.521,0-0.474,0.262-0.303,0.617l0.837,1.727l0.945-1.727
	c0.233-0.418,0.012-0.617-0.391-0.617v-0.178h1.413v0.178c-0.19,0-0.378,0.088-0.561,0.416l-1.148,2.088
	c-0.069,0.137-0.081,0.33-0.081,0.5v0.77c0,0.641-0.028,0.605,0.587,0.682v0.178h-1.85"/>
<path fill="none" stroke="#01256E" stroke-width="0.374" stroke-miterlimit="3.864" d="M85.888,39.265
	c0.62-0.076,0.592-0.041,0.592-0.682v-1.059l-1.056-2.098c-0.229-0.447-0.421-0.617-0.739-0.617v-0.178h1.754v0.178
	c-0.521,0-0.474,0.262-0.303,0.617l0.837,1.727l0.945-1.727c0.233-0.418,0.012-0.617-0.391-0.617v-0.178h1.413v0.178
	c-0.19,0-0.378,0.088-0.561,0.416l-1.148,2.088c-0.069,0.137-0.081,0.33-0.081,0.5v0.77c0,0.641-0.028,0.605,0.587,0.682v0.178
	h-1.85V39.265z"/>
<path fill="#01256E" d="M91.94,37.796c0-1.168,1.007-2.914,2.496-2.914c1.184,0,1.443,0.799,1.443,1.602
	c0,0.98-0.784,3.066-2.488,3.066C92.251,39.55,91.94,38.634,91.94,37.796 M95.059,36.056c0-0.926-0.563-0.961-0.706-0.961
	c-0.962,0-1.593,1.73-1.593,2.887c0,0.463,0.08,1.301,0.739,1.301C94.514,39.282,95.059,37.608,95.059,36.056"/>
<path fill="#01256E" d="M100.027,35.175l-0.216,0.188h-1.167c-0.437,2.119-1.146,4.945-1.655,6.303h-0.403l1.274-6.303h-0.847
	l0.083-0.373h0.836c0.47-1.9,2.041-2.096,2.414-2.096c0.206,0,0.633,0.033,0.77,0.16l-0.109,0.588l-0.223,0.107
	c-0.126-0.242-0.409-0.516-0.784-0.516c-0.536,0-0.938,0.363-1.149,1.324l-0.098,0.432h1.311"/>
<path fill="#01256E" d="M105.664,38.329c0,0.83-0.036,0.785,0.767,0.883v0.23h-2.396v-0.23c0.802-0.098,0.767-0.053,0.767-0.883
	v-4.01c0-0.828,0.035-0.785-0.767-0.883v-0.23h2.331c1.481,0,2.213,0.588,2.213,1.656c0,1.283-1.158,1.979-2.521,1.898v-0.178
	c1.112,0.02,1.629-0.65,1.629-1.633c0-0.996-0.48-1.459-1.477-1.459h-0.545"/>
<path fill="none" stroke="#01256E" stroke-width="0.374" stroke-miterlimit="3.864" d="M105.664,38.329
	c0,0.83-0.036,0.785,0.767,0.883v0.23h-2.396v-0.23c0.802-0.098,0.767-0.053,0.767-0.883v-4.01c0-0.828,0.035-0.785-0.767-0.883
	v-0.23h2.331c1.481,0,2.213,0.588,2.213,1.656c0,1.283-1.158,1.979-2.521,1.898v-0.178c1.112,0.02,1.629-0.65,1.629-1.633
	c0-0.996-0.48-1.459-1.477-1.459h-0.545V38.329z"/>
<path fill="#01256E" d="M109.807,39.265c0.617-0.076,0.591-0.041,0.591-0.682v-3.094c0-0.639,0.026-0.605-0.591-0.68v-0.178h3.074
	v1.105h-0.18c-0.069-0.512-0.208-0.887-0.702-0.887h-0.935v1.965h0.577c0.432,0,0.619-0.172,0.634-0.598h0.18v1.465h-0.18
	c-0.015-0.404-0.173-0.645-0.634-0.645h-0.577v1.555c0,0.584,0.269,0.631,0.887,0.631c0.994,0,0.948-0.281,1.267-1.018h0.177
	l-0.206,1.236h-3.382"/>
<path fill="none" stroke="#01256E" stroke-width="0.374" stroke-miterlimit="3.864" d="M109.807,39.265
	c0.617-0.076,0.591-0.041,0.591-0.682v-3.094c0-0.639,0.026-0.605-0.591-0.68v-0.178h3.074v1.105h-0.18
	c-0.069-0.512-0.208-0.887-0.702-0.887h-0.935v1.965h0.577c0.432,0,0.619-0.172,0.634-0.598h0.18v1.465h-0.18
	c-0.015-0.404-0.173-0.645-0.634-0.645h-0.577v1.555c0,0.584,0.269,0.631,0.887,0.631c0.994,0,0.948-0.281,1.267-1.018h0.177
	l-0.206,1.236h-3.382V39.265z"/>
<path fill="#01256E" d="M118.856,39.442c-1.093-1.291-2.227-2.646-3.349-3.967v3.039c0,0.145,0.027,0.262,0.042,0.369
	c0.034,0.25,0.266,0.348,0.719,0.381v0.178h-1.683v-0.178c0.332-0.033,0.558-0.131,0.592-0.381c0.017-0.107,0.04-0.225,0.04-0.369
	v-3.24c-0.19-0.246-0.405-0.465-0.794-0.465v-0.178h1.249c1.026,1.24,2.091,2.508,3.115,3.752h0.012V35.56
	c0-0.146-0.025-0.262-0.041-0.373c-0.032-0.248-0.267-0.342-0.72-0.377v-0.178h1.684v0.178c-0.321,0.035-0.557,0.129-0.591,0.377
	c-0.012,0.111-0.042,0.227-0.042,0.373v3.883"/>
<path fill="none" stroke="#01256E" stroke-width="0.374" stroke-miterlimit="3.864" d="M118.856,39.442
	c-1.093-1.291-2.227-2.646-3.349-3.967v3.039c0,0.145,0.027,0.262,0.042,0.369c0.034,0.25,0.266,0.348,0.719,0.381v0.178h-1.683
	v-0.178c0.332-0.033,0.558-0.131,0.592-0.381c0.017-0.107,0.04-0.225,0.04-0.369v-3.24c-0.19-0.246-0.405-0.465-0.794-0.465v-0.178
	h1.249c1.026,1.24,2.091,2.508,3.115,3.752h0.012V35.56c0-0.146-0.025-0.262-0.041-0.373c-0.032-0.248-0.267-0.342-0.72-0.377
	v-0.178h1.684v0.178c-0.321,0.035-0.557,0.129-0.591,0.377c-0.012,0.111-0.042,0.227-0.042,0.373v3.883H118.856z"/>
<path fill="#01256E" d="M125.017,39.442c-1.096-1.291-2.228-2.646-3.35-3.967v3.039c0,0.145,0.029,0.262,0.041,0.369
	c0.035,0.25,0.27,0.348,0.724,0.381v0.178h-1.684v-0.178c0.329-0.033,0.557-0.131,0.588-0.381c0.019-0.107,0.041-0.225,0.041-0.369
	v-3.24c-0.189-0.246-0.402-0.465-0.796-0.465v-0.178h1.252c1.024,1.24,2.088,2.508,3.114,3.752h0.012V35.56
	c0-0.146-0.025-0.262-0.037-0.373c-0.037-0.248-0.271-0.342-0.723-0.377v-0.178h1.684v0.178c-0.322,0.035-0.558,0.129-0.59,0.377
	c-0.018,0.111-0.045,0.227-0.045,0.373v3.883"/>
<path fill="none" stroke="#01256E" stroke-width="0.374" stroke-miterlimit="3.864" d="M125.017,39.442
	c-1.096-1.291-2.228-2.646-3.35-3.967v3.039c0,0.145,0.029,0.262,0.041,0.369c0.035,0.25,0.27,0.348,0.724,0.381v0.178h-1.684
	v-0.178c0.329-0.033,0.557-0.131,0.588-0.381c0.019-0.107,0.041-0.225,0.041-0.369v-3.24c-0.189-0.246-0.402-0.465-0.796-0.465
	v-0.178h1.252c1.024,1.24,2.088,2.508,3.114,3.752h0.012V35.56c0-0.146-0.025-0.262-0.037-0.373
	c-0.037-0.248-0.271-0.342-0.723-0.377v-0.178h1.684v0.178c-0.322,0.035-0.558,0.129-0.59,0.377
	c-0.018,0.111-0.045,0.227-0.045,0.373v3.883H125.017z"/>
<path fill="#01256E" d="M129.495,35.655c-0.057-0.48-0.319-0.867-0.868-0.867c-0.398,0-0.754,0.207-0.754,0.715
	c0,0.482,0.48,0.77,1.167,1.287c0.729,0.543,0.963,0.893,0.963,1.463c0,0.82-0.836,1.273-1.663,1.273
	c-0.442,0-0.82-0.084-1.179-0.221c-0.025-0.014-0.047-0.041-0.047-0.096v-0.99h0.18c0.075,0.762,0.579,1.066,1.107,1.066
	c0.486,0,0.886-0.373,0.886-0.875c0-0.447-0.238-0.809-1.272-1.492c-0.369-0.25-0.83-0.516-0.83-1.264
	c0-0.621,0.688-1.105,1.479-1.105c0.295,0,0.688,0.031,0.962,0.129c0.039,0.012,0.048,0.043,0.048,0.074v0.902"/>
<path fill="none" stroke="#01256E" stroke-width="0.374" stroke-miterlimit="3.864" d="M129.495,35.655
	c-0.057-0.48-0.319-0.867-0.868-0.867c-0.398,0-0.754,0.207-0.754,0.715c0,0.482,0.48,0.77,1.167,1.287
	c0.729,0.543,0.963,0.893,0.963,1.463c0,0.82-0.836,1.273-1.663,1.273c-0.442,0-0.82-0.084-1.179-0.221
	c-0.025-0.014-0.047-0.041-0.047-0.096v-0.99h0.18c0.075,0.762,0.579,1.066,1.107,1.066c0.486,0,0.886-0.373,0.886-0.875
	c0-0.447-0.238-0.809-1.272-1.492c-0.369-0.25-0.83-0.516-0.83-1.264c0-0.621,0.688-1.105,1.479-1.105
	c0.295,0,0.688,0.031,0.962,0.129c0.039,0.012,0.048,0.043,0.048,0.074v0.902H129.495z"/>
<path fill="#01256E" d="M132.266,39.265c0.618-0.076,0.59-0.041,0.59-0.682v-1.059l-1.059-2.098
	c-0.227-0.447-0.419-0.617-0.735-0.617v-0.178h1.752v0.178c-0.521,0-0.474,0.262-0.304,0.617l0.836,1.727l0.947-1.727
	c0.233-0.418,0.016-0.617-0.392-0.617v-0.178h1.415v0.178c-0.19,0-0.377,0.088-0.564,0.416l-1.146,2.088
	c-0.067,0.137-0.085,0.33-0.085,0.5v0.77c0,0.641-0.026,0.605,0.592,0.682v0.178h-1.848"/>
<path fill="none" stroke="#01256E" stroke-width="0.374" stroke-miterlimit="3.864" d="M132.266,39.265
	c0.618-0.076,0.59-0.041,0.59-0.682v-1.059l-1.059-2.098c-0.227-0.447-0.419-0.617-0.735-0.617v-0.178h1.752v0.178
	c-0.521,0-0.474,0.262-0.304,0.617l0.836,1.727l0.947-1.727c0.233-0.418,0.016-0.617-0.392-0.617v-0.178h1.415v0.178
	c-0.19,0-0.377,0.088-0.564,0.416l-1.146,2.088c-0.067,0.137-0.085,0.33-0.085,0.5v0.77c0,0.641-0.026,0.605,0.592,0.682v0.178
	h-1.848V39.265z"/>
<path fill="#01256E" d="M136.445,39.265c0.621-0.076,0.594-0.041,0.594-0.682v-3.094c0-0.639,0.027-0.605-0.594-0.68v-0.178h1.854
	v0.178c-0.623,0.074-0.596,0.041-0.596,0.68v3.205c0,0.482,0.273,0.529,0.882,0.529c0.997,0,0.955-0.281,1.273-1.018h0.169
	l-0.204,1.236h-3.378"/>
<path fill="none" stroke="#01256E" stroke-width="0.374" stroke-miterlimit="3.864" d="M136.445,39.265
	c0.621-0.076,0.594-0.041,0.594-0.682v-3.094c0-0.639,0.027-0.605-0.594-0.68v-0.178h1.854v0.178
	c-0.623,0.074-0.596,0.041-0.596,0.68v3.205c0,0.482,0.273,0.529,0.882,0.529c0.997,0,0.955-0.281,1.273-1.018h0.169l-0.204,1.236
	h-3.378V39.265z"/>
<path fill="#01256E" d="M142.093,34.81c-0.376,0-0.653,0.107-0.428,0.768c0.27,0.813,0.668,1.994,1.025,3.039
	c0.442-1.051,0.859-2.109,1.286-3.162c0.172-0.432-0.006-0.645-0.476-0.645v-0.178h1.485v0.178c-0.198,0-0.426,0.066-0.568,0.414
	c-0.579,1.406-1.16,2.811-1.743,4.219h-0.349c-0.418-1.189-0.887-2.514-1.309-3.684c-0.254-0.736-0.466-0.949-0.796-0.949v-0.178
	h1.871"/>
<path fill="none" stroke="#01256E" stroke-width="0.374" stroke-miterlimit="3.864" d="M142.093,34.81
	c-0.376,0-0.653,0.107-0.428,0.768c0.27,0.813,0.668,1.994,1.025,3.039c0.442-1.051,0.859-2.109,1.286-3.162
	c0.172-0.432-0.006-0.645-0.476-0.645v-0.178h1.485v0.178c-0.198,0-0.426,0.066-0.568,0.414c-0.579,1.406-1.16,2.811-1.743,4.219
	h-0.349c-0.418-1.189-0.887-2.514-1.309-3.684c-0.254-0.736-0.466-0.949-0.796-0.949v-0.178h1.871V34.81z"/>
<path fill="#01256E" d="M146.13,37.849l-0.317,0.922c-0.089,0.27,0.043,0.494,0.345,0.494v0.178h-1.255v-0.178
	c0.187,0,0.387-0.117,0.497-0.344c0.298-0.605,1.103-2.854,1.672-4.371h0.385c0.469,1.381,1.168,3.498,1.403,4.109
	c0.151,0.387,0.261,0.605,0.557,0.605v0.178h-1.603v-0.178c0.435,0,0.477-0.225,0.365-0.529l-0.3-0.887H146.13 M147.794,37.587
	l-0.73-2.234h-0.012l-0.82,2.234H147.794z"/>
<path fill="none" stroke="#01256E" stroke-width="0.374" stroke-miterlimit="3.864" d="M146.13,37.849l-0.317,0.922
	c-0.089,0.27,0.043,0.494,0.345,0.494v0.178h-1.255v-0.178c0.187,0,0.387-0.117,0.497-0.344c0.298-0.605,1.103-2.854,1.672-4.371
	h0.385c0.469,1.381,1.168,3.498,1.403,4.109c0.151,0.387,0.261,0.605,0.557,0.605v0.178h-1.603v-0.178
	c0.435,0,0.477-0.225,0.365-0.529l-0.3-0.887H146.13 M147.794,37.587l-0.73-2.234h-0.012l-0.82,2.234H147.794z"/>
<path fill="#01256E" d="M154.709,39.442c-1.093-1.291-2.225-2.646-3.346-3.967v3.039c0,0.145,0.025,0.262,0.039,0.369
	c0.036,0.25,0.268,0.348,0.724,0.381v0.178h-1.685v-0.178c0.326-0.033,0.556-0.131,0.59-0.381c0.015-0.107,0.041-0.225,0.041-0.369
	v-3.24c-0.192-0.246-0.405-0.465-0.796-0.465v-0.178h1.25c1.025,1.24,2.09,2.508,3.115,3.752h0.015V35.56
	c0-0.146-0.024-0.262-0.043-0.373c-0.034-0.248-0.27-0.342-0.722-0.377v-0.178h1.685v0.178c-0.322,0.035-0.557,0.129-0.591,0.377
	c-0.014,0.111-0.042,0.227-0.042,0.373v3.883"/>
<path fill="none" stroke="#01256E" stroke-width="0.374" stroke-miterlimit="3.864" d="M154.709,39.442
	c-1.093-1.291-2.225-2.646-3.346-3.967v3.039c0,0.145,0.025,0.262,0.039,0.369c0.036,0.25,0.268,0.348,0.724,0.381v0.178h-1.685
	v-0.178c0.326-0.033,0.556-0.131,0.59-0.381c0.015-0.107,0.041-0.225,0.041-0.369v-3.24c-0.192-0.246-0.405-0.465-0.796-0.465
	v-0.178h1.25c1.025,1.24,2.09,2.508,3.115,3.752h0.015V35.56c0-0.146-0.024-0.262-0.043-0.373c-0.034-0.248-0.27-0.342-0.722-0.377
	v-0.178h1.685v0.178c-0.322,0.035-0.557,0.129-0.591,0.377c-0.014,0.111-0.042,0.227-0.042,0.373v3.883H154.709z"/>
<path fill="#01256E" d="M157.965,38.583c0,0.641-0.03,0.605,0.589,0.68v0.18h-1.848v-0.18c0.617-0.074,0.589-0.039,0.589-0.68
	v-3.094c0-0.639,0.028-0.605-0.589-0.68v-0.178h1.848v0.178c-0.619,0.074-0.589,0.041-0.589,0.68"/>
<path fill="none" stroke="#01256E" stroke-width="0.374" stroke-miterlimit="3.864" d="M157.965,38.583
	c0,0.641-0.03,0.605,0.589,0.68v0.18h-1.848v-0.18c0.617-0.074,0.589-0.039,0.589-0.68v-3.094c0-0.639,0.028-0.605-0.589-0.68
	v-0.178h1.848v0.178c-0.619,0.074-0.589,0.041-0.589,0.68V38.583z"/>
<path fill="#01256E" d="M160.839,37.849l-0.315,0.922c-0.09,0.27,0.038,0.494,0.344,0.494v0.178h-1.253v-0.178
	c0.186,0,0.384-0.117,0.495-0.344c0.293-0.605,1.101-2.854,1.672-4.371h0.384c0.467,1.381,1.17,3.498,1.403,4.109
	c0.15,0.387,0.261,0.605,0.554,0.605v0.178h-1.601v-0.178c0.435,0,0.473-0.225,0.364-0.529l-0.297-0.887H160.839 M162.502,37.587
	l-0.729-2.234h-0.015l-0.816,2.234H162.502z"/>
<path fill="none" stroke="#01256E" stroke-width="0.374" stroke-miterlimit="3.864" d="M160.839,37.849l-0.315,0.922
	c-0.09,0.27,0.038,0.494,0.344,0.494v0.178h-1.253v-0.178c0.186,0,0.384-0.117,0.495-0.344c0.293-0.605,1.101-2.854,1.672-4.371
	h0.384c0.467,1.381,1.17,3.498,1.403,4.109c0.15,0.387,0.261,0.605,0.554,0.605v0.178h-1.601v-0.178
	c0.435,0,0.473-0.225,0.364-0.529l-0.297-0.887H160.839 M162.502,37.587l-0.729-2.234h-0.015l-0.816,2.234H162.502z"/>
<path fill="#FFFFFF" d="M-0.011,0.688h37.454v18.724c-0.254,15.261-17.356,23.284-19.508,23.21
	c-2.24-0.076-17.995-7.926-17.95-23.29C-0.013,19.057-0.011,0.688-0.011,0.688"/>
<path fill="#FFFFFF" d="M0.894,1.686h35.67v17.829C36.322,34.05,20.032,41.69,17.982,41.62c-2.131-0.072-17.137-7.549-17.093-22.181
	C0.889,19.178,0.894,1.686,0.894,1.686"/>
<path fill="#95001A" d="M0.889,12.521C0.942,12.572,0.893,1.688,0.893,1.688h35.645v10.833"/>
<path fill="none" stroke="#95001A" stroke-width="0.309" stroke-miterlimit="3.864" d="M0.889,12.521
	C0.942,12.572,0.893,1.688,0.893,1.688h35.645v10.833H0.889z"/>
<path fill="#01256E" d="M2.887,28.382c1.369,2.881,3.065,5.201,5.447,7.178l10.378-10.496l9.989,10.246
	c2.06-1.885,4.065-4.162,5.503-6.863L18.699,13.529L2.958,28.413"/>
<path fill="none" stroke="#01256E" stroke-width="0.308" stroke-miterlimit="3.864" d="M2.887,28.382
	c1.369,2.881,3.065,5.201,5.447,7.178l10.378-10.496l9.989,10.246c2.06-1.885,4.065-4.162,5.503-6.863L18.699,13.529L2.958,28.413
	L2.887,28.382z"/>
<line fill="none" stroke="#01256E" stroke-width="0.309" stroke-miterlimit="3.864" x1="0.889" y1="12.595" x2="36.534" y2="12.589"/>
<path fill="#FFFFFF" d="M27.605,4.378h0.972c0.71-0.162,0.97-0.573,1.697-0.573c0.523,0,0.772,0.347,1.158,0.347
	c0.324,0,0.824-0.368,1.374-0.368c0.561,0,0.838,0.336,1.204,0.491c0.326,0.14,0.754,0.133,1.205,0.133
	c-0.012,0.326,0,0.519,0,0.793c0,0.275,0.375,0.167,0.375,0.619c0,0.476-0.485,0.382-0.485,0.575l-0.017,1.769
	c0.025,0.222,0.473,0.252,0.473,0.588c0,0.5-0.499,0.326-0.467,0.718c0.025,0.293,0,0.907,0,0.907c-0.957,0-7.119,0.057-7.423,0.045
	c0.02-0.656,0.122-0.618,0.144-0.934c0.02-0.255-0.554-0.41-0.554-0.841c0-0.296,0.344-0.278,0.374-0.557V6.323
	c-0.018-0.23-0.538-0.348-0.521-0.679c0.023-0.396,0.484-0.346,0.484-0.609C27.599,4.919,27.611,4.489,27.605,4.378"/>
<path fill="none" stroke="#01256E" stroke-width="0.309" stroke-miterlimit="3.864" d="M27.605,4.378h0.972
	c0.71-0.162,0.97-0.573,1.697-0.573c0.523,0,0.772,0.347,1.158,0.347c0.324,0,0.824-0.368,1.374-0.368
	c0.561,0,0.838,0.336,1.204,0.491c0.326,0.14,0.754,0.133,1.205,0.133c-0.012,0.326,0,0.519,0,0.793
	c0,0.275,0.375,0.167,0.375,0.619c0,0.476-0.485,0.382-0.485,0.575l-0.017,1.769c0.025,0.222,0.473,0.252,0.473,0.588
	c0,0.5-0.499,0.326-0.467,0.718c0.025,0.293,0,0.907,0,0.907c-0.957,0-7.119,0.057-7.423,0.045c0.02-0.656,0.122-0.618,0.144-0.934
	c0.02-0.255-0.554-0.41-0.554-0.841c0-0.296,0.344-0.278,0.374-0.557V6.323c-0.018-0.23-0.538-0.348-0.521-0.679
	c0.023-0.396,0.484-0.346,0.484-0.609C27.599,4.919,27.611,4.489,27.605,4.378z"/>
<path fill="none" stroke="#01256E" stroke-width="0.309" stroke-miterlimit="3.864" d="M28.393,4.408c0,0,0.014,3.947,0,4.875
	c0,0,5.752,0.012,6.006-0.01c0-1.052-0.008-4.896-0.008-4.896"/>
<line fill="none" stroke="#01256E" stroke-width="0.309" stroke-miterlimit="3.864" x1="31.401" y1="4.166" x2="31.401" y2="9.295"/>
<path fill="#01256E" d="M31.491,8.664c0.255,0.012,0.718,0.182,1.169,0.319c0.587,0.177,1.206,0.052,1.665,0.143
	c0.143,0.031-2.834,0.055-2.834,0.055C31.503,8.605,31.491,8.664,31.491,8.664"/>
<path fill="none" stroke="#01256E" stroke-width="0.309" stroke-miterlimit="3.864" d="M31.491,8.664
	c0.255,0.012,0.718,0.182,1.169,0.319c0.587,0.177,1.206,0.052,1.665,0.143c0.143,0.031-2.834,0.055-2.834,0.055
	C31.503,8.605,31.491,8.664,31.491,8.664z"/>
<path fill="#01256E" d="M31.066,9.425c0-0.13,0.147-0.232,0.333-0.232c0.185,0,0.336,0.103,0.336,0.232
	c0,0.126-0.151,0.231-0.336,0.231C31.213,9.656,31.066,9.551,31.066,9.425"/>
<ellipse fill="none" stroke="#01256E" stroke-width="0.309" stroke-miterlimit="3.864" cx="31.4" cy="9.425" rx="0.334" ry="0.232"/>
<path fill="#01256E" d="M31.236,8.664c-0.253,0.012-0.72,0.182-1.171,0.319c-0.583,0.177-1.206,0.052-1.662,0.143
	c-0.146,0.031,2.833,0.055,2.833,0.055C31.223,8.605,31.236,8.664,31.236,8.664"/>
<path fill="none" stroke="#01256E" stroke-width="0.309" stroke-miterlimit="3.864" d="M31.236,8.664
	c-0.253,0.012-0.72,0.182-1.171,0.319c-0.583,0.177-1.206,0.052-1.662,0.143c-0.146,0.031,2.833,0.055,2.833,0.055
	C31.223,8.605,31.236,8.664,31.236,8.664z"/>
<path fill="#FFFFFF" d="M11.481,10.892c0.098,0.377,0.38,0.627,0.844,0.627c0.863,0,1.697-0.639,2.195-0.999
	c0.393-0.278,0.794-0.572,0.794-1.184L15.243,9.57c0,0,0.673-0.676,2.336-0.144c0.465,0.151,2.444,1.263,2.871,1.442
	c0.367,0.158,1.656,1.08,3.671,0.725c0,0,3.074-0.425,2.386-3.589c-0.491-2.264-0.339-2.425-0.15-3.15
	c-0.072-0.034-1.883-0.44-1.833,2.067c-0.784,0.079-1.784,0.672-1.132,2.229c0.265-0.396,0.62-0.813,1.108-0.813
	c0.307,0,0.629,0.441,0.649,0.766c0.05,0.791-0.748,1.138-1.735,0.976c-0.499-0.082-0.962-0.637-1.651-1.139
	c0.119-0.057,0.23-0.464,0.23-0.625c0-0.4-0.344-0.587-0.58-0.722c0.05-0.139,0.145-0.322,0.145-0.463
	c0-0.32-0.451-0.296-0.623-0.419c0.07-0.098,0.07-0.04,0.07-0.183c0-0.467,0.073-0.724-0.868-0.699
	c0.077-0.458-0.019-0.755-0.336-0.883l-0.701-0.093c-0.435-0.08,0-0.227-0.401-0.61c-0.357-0.345-0.946,0-0.946,0
	c0-0.323-0.22-0.575-0.604-0.575c-0.206,0-0.459,0.019-0.604,0.095l-0.289,0.231c-0.361,0-0.452-0.326-0.866-0.326
	c-0.416,0-0.586,0.326-0.75,0.535c-0.282-0.134-0.318-0.37-0.7-0.37c-0.22,0-0.287,0.236-0.384,0.348
	c-0.247,0.274-0.229,0.555-0.614,0.695l-0.146-0.253c-0.003-0.018-0.008-0.032-0.012-0.047c-0.565,0.271-1.844,3.186-1.844,3.785
	c0,0.567,0.495,0.317,0.495,0.928c0,0.359-0.532,0.621-0.532,0.928c0,0.392,0.453,0.58,0.844,0.58"/>
<path fill="none" stroke="#01256E" stroke-width="0.308" stroke-miterlimit="3.864" d="M11.481,10.892
	c0.098,0.377,0.38,0.627,0.844,0.627c0.863,0,1.697-0.639,2.195-0.999c0.393-0.278,0.794-0.572,0.794-1.184L15.243,9.57
	c0,0,0.673-0.676,2.336-0.144c0.465,0.151,2.444,1.263,2.871,1.442c0.367,0.158,1.656,1.08,3.671,0.725c0,0,3.074-0.425,2.386-3.589
	c-0.491-2.264-0.339-2.425-0.15-3.15c-0.072-0.034-1.883-0.44-1.833,2.067c-0.784,0.079-1.784,0.672-1.132,2.229
	c0.265-0.396,0.62-0.813,1.108-0.813c0.307,0,0.629,0.441,0.649,0.766c0.05,0.791-0.748,1.138-1.735,0.976
	c-0.499-0.082-0.962-0.637-1.651-1.139c0.119-0.057,0.23-0.464,0.23-0.625c0-0.4-0.344-0.587-0.58-0.722
	c0.05-0.139,0.145-0.322,0.145-0.463c0-0.32-0.451-0.296-0.623-0.419c0.07-0.098,0.07-0.04,0.07-0.183
	c0-0.467,0.073-0.724-0.868-0.699c0.077-0.458-0.019-0.755-0.336-0.883l-0.701-0.093c-0.435-0.08,0-0.227-0.401-0.61
	c-0.357-0.345-0.946,0-0.946,0c0-0.323-0.22-0.575-0.604-0.575c-0.206,0-0.459,0.019-0.604,0.095l-0.289,0.231
	c-0.361,0-0.452-0.326-0.866-0.326c-0.416,0-0.586,0.326-0.75,0.535c-0.282-0.134-0.318-0.37-0.7-0.37
	c-0.22,0-0.287,0.236-0.384,0.348c-0.247,0.274-0.229,0.555-0.614,0.695l-0.146-0.253c-0.003-0.018-0.008-0.032-0.012-0.047
	c-0.565,0.271-1.844,3.186-1.844,3.785c0,0.567,0.495,0.317,0.495,0.928c0,0.359-0.532,0.621-0.532,0.928
	c0,0.392,0.453,0.58,0.844,0.58L11.481,10.892z"/>
<path fill="#01256E" d="M12.814,8.444c0,0,0.627,0.238,0.627,0.369c0,0.18-0.406,0.373-0.676,0.604h-0.336
	c0.118-0.393,0-0.249,0-0.604C12.429,8.552,12.707,8.444,12.814,8.444"/>
<path fill="none" stroke="#01256E" stroke-width="0.309" stroke-miterlimit="3.864" d="M12.814,8.444c0,0,0.627,0.238,0.627,0.369
	c0,0.18-0.406,0.373-0.676,0.604h-0.336c0.118-0.393,0-0.249,0-0.604C12.429,8.552,12.707,8.444,12.814,8.444z"/>
<path fill="none" stroke="#01256E" stroke-width="0.309" stroke-miterlimit="3.864" d="M15.103,7.376
	c0.326-0.158,0.176-0.558,0.699-0.558c0.466,0,0.639,0.322,1.061,0.322c0.285,0,0.482-0.276,0.868-0.276
	c0.345,0,0.796,0.463,0.725,1.021c0,0,1.205-0.395,1.156,0.905c0.963-0.325,0.868,0.471,0.963,0.859
	c0.098,0.373,0.723,0.069,0.628,0.86"/>
<path fill="#FFFFFF" d="M2.239,4.411h0.969c0.712-0.164,0.97-0.575,1.701-0.575c0.522,0,0.77,0.347,1.157,0.347
	c0.324,0,0.826-0.369,1.373-0.369C8,3.813,8.277,4.15,8.644,4.306c0.325,0.14,0.755,0.134,1.206,0.134c-0.011,0.324,0,0.517,0,0.787
	c0,0.281,0.373,0.171,0.373,0.622c0,0.478-0.481,0.385-0.481,0.576L9.724,8.195c0.022,0.219,0.471,0.251,0.471,0.587
	c0,0.499-0.499,0.326-0.466,0.72c0.024,0.289,0,0.905,0,0.905c-0.958,0-6.991,0.004-7.291-0.006
	c0.017-0.656-0.012-0.566,0.013-0.884c0.017-0.252-0.556-0.41-0.556-0.843c0-0.294,0.344-0.276,0.374-0.556V6.353
	C2.251,6.123,1.733,6.007,1.75,5.676C1.772,5.281,2.232,5.33,2.232,5.066C2.232,4.95,2.245,4.521,2.239,4.411"/>
<path fill="none" stroke="#01256E" stroke-width="0.309" stroke-miterlimit="3.864" d="M2.239,4.411h0.969
	c0.712-0.164,0.97-0.575,1.701-0.575c0.522,0,0.77,0.347,1.157,0.347c0.324,0,0.826-0.369,1.373-0.369
	C8,3.813,8.277,4.15,8.644,4.306c0.325,0.14,0.755,0.134,1.206,0.134c-0.011,0.324,0,0.517,0,0.787c0,0.281,0.373,0.171,0.373,0.622
	c0,0.478-0.481,0.385-0.481,0.576L9.724,8.195c0.022,0.219,0.471,0.251,0.471,0.587c0,0.499-0.499,0.326-0.466,0.72
	c0.024,0.289,0,0.905,0,0.905c-0.958,0-6.991,0.004-7.291-0.006c0.017-0.656-0.012-0.566,0.013-0.884
	c0.017-0.252-0.556-0.41-0.556-0.843c0-0.294,0.344-0.276,0.374-0.556V6.353C2.251,6.123,1.733,6.007,1.75,5.676
	C1.772,5.281,2.232,5.33,2.232,5.066C2.232,4.95,2.245,4.521,2.239,4.411z"/>
<path fill="none" stroke="#01256E" stroke-width="0.309" stroke-miterlimit="3.864" d="M3.03,4.439c0,0,0.011,3.947,0,4.877
	c0,0,5.746,0.011,6.002-0.012c0-1.051-0.008-4.894-0.008-4.894"/>
<line fill="none" stroke="#01256E" stroke-width="0.309" stroke-miterlimit="3.864" x1="6.036" y1="4.196" x2="6.036" y2="9.327"/>
<path fill="#01256E" d="M6.125,8.694c0.253,0.011,0.716,0.184,1.168,0.319C7.879,9.19,8.5,9.067,8.958,9.158
	C9.103,9.189,6.125,9.21,6.125,9.21C6.138,8.635,6.125,8.694,6.125,8.694"/>
<path fill="none" stroke="#01256E" stroke-width="0.309" stroke-miterlimit="3.864" d="M6.125,8.694
	c0.253,0.011,0.716,0.184,1.168,0.319C7.879,9.19,8.5,9.067,8.958,9.158C9.103,9.189,6.125,9.21,6.125,9.21
	C6.138,8.635,6.125,8.694,6.125,8.694z"/>
<path fill="#01256E" d="M5.699,9.455c0-0.129,0.148-0.231,0.334-0.231c0.184,0,0.336,0.103,0.336,0.231
	c0,0.128-0.152,0.231-0.336,0.231C5.847,9.687,5.699,9.583,5.699,9.455"/>
<ellipse fill="none" stroke="#01256E" stroke-width="0.309" stroke-miterlimit="3.864" cx="6.034" cy="9.455" rx="0.335" ry="0.231"/>
<path fill="#01256E" d="M5.869,8.694C5.615,8.705,5.153,8.878,4.701,9.014C4.115,9.19,3.497,9.067,3.037,9.158
	C2.892,9.189,5.869,9.21,5.869,9.21C5.856,8.635,5.869,8.694,5.869,8.694"/>
<path fill="none" stroke="#01256E" stroke-width="0.309" stroke-miterlimit="3.864" d="M5.869,8.694
	C5.615,8.705,5.153,8.878,4.701,9.014C4.115,9.19,3.497,9.067,3.037,9.158C2.892,9.189,5.869,9.21,5.869,9.21
	C5.856,8.635,5.869,8.694,5.869,8.694z"/>
<path fill="#FFFFFF" d="M7.019,27.192c0-1.654,1.393-2.998,3.108-2.998c1.721,0,3.114,1.344,3.114,2.998
	c0,1.658-1.394,2.998-3.114,2.998C8.412,30.19,7.019,28.851,7.019,27.192"/>
<ellipse fill="none" stroke="#01256E" stroke-width="0.309" stroke-miterlimit="3.864" cx="10.13" cy="27.192" rx="3.111" ry="2.998"/>
<path fill="#FFFFFF" d="M15.574,19.994c0-1.656,1.394-2.999,3.111-2.999c1.72,0,3.113,1.343,3.113,2.999
	c0,1.655-1.394,2.993-3.113,2.993C16.967,22.987,15.574,21.649,15.574,19.994"/>
<ellipse fill="none" stroke="#01256E" stroke-width="0.308" stroke-miterlimit="3.864" cx="18.686" cy="19.994" rx="3.112" ry="2.999"/>
<path fill="#FFFFFF" d="M23.646,27.192c0-1.654,1.393-2.998,3.112-2.998c1.718,0,3.111,1.344,3.111,2.998
	c0,1.658-1.394,2.998-3.111,2.998C25.039,30.19,23.646,28.851,23.646,27.192"/>
<ellipse fill="none" stroke="#01256E" stroke-width="0.309" stroke-miterlimit="3.864" cx="26.758" cy="27.192" rx="3.112" ry="2.998"/>
<path fill="none" stroke="#01256E" stroke-width="0.309" stroke-miterlimit="3.864" d="M21.808,8.818
	c-0.797-0.875-1.498-1.904-1.618-1.954c-0.393-0.164-1.325-2.02-3.833-2.159c-0.638-0.037-3.035,0.196-3.116,0.812"/>
<path fill="none" stroke="#01256E" stroke-width="0.309" stroke-miterlimit="3.864" d="M15.33,9.494
	c0.011-0.06,0.015-0.125,0.015-0.192c0-0.1-0.587-0.044-0.727-0.084c-0.098-0.028,0.258-0.171,0.196-0.171
	c0.362-0.141,1.289-0.548,0.963-0.858c-0.312-0.303-0.498-0.621-0.674-0.813c-0.235-0.256-0.51-0.394-0.938-0.394
	c-0.371,0-0.964,0.636-1.212,0.811c0.181-0.175,0.704-0.627,0.704-0.996c0-0.837-0.668-1.563-0.845-2.252"/>
<path fill="none" stroke="#01256E" stroke-width="0.309" stroke-miterlimit="3.864" d="M11.727,10.767
	c0.662,0,1.038-0.048,1.349-0.212c0.345-0.179,0.965-0.565,1.109-0.904"/>
<path fill="none" stroke="#01256E" stroke-width="0.608" stroke-miterlimit="3.864" d="M0.88,1.688h35.671v17.828
	c-0.243,14.538-16.53,22.177-18.58,22.108c-2.129-0.072-17.136-7.553-17.094-22.182C0.877,19.179,0.88,1.688,0.88,1.688z"/>
</svg>